<?xml version="1.0" encoding="UTF-8" standalone="no"?>
<svg
   xmlns:dc="http://purl.org/dc/elements/1.1/"
   xmlns:cc="http://creativecommons.org/ns#"
   xmlns:rdf="http://www.w3.org/1999/02/22-rdf-syntax-ns#"
   xmlns:svg="http://www.w3.org/2000/svg"
   xmlns="http://www.w3.org/2000/svg"
   xmlns:sodipodi="http://sodipodi.sourceforge.net/DTD/sodipodi-0.dtd"
   xmlns:inkscape="http://www.inkscape.org/namespaces/inkscape"
   width="45"
   height="380"
   viewBox="0 0 45 380"
   version="1.1"
   xml:space="preserve"
   style="fill-rule:evenodd;clip-rule:evenodd;stroke-linecap:round;stroke-linejoin:round;stroke-miterlimit:1.5;"
   id="svg2"
   inkscape:version="0.91 r13725"
   sodipodi:docname="NoiseGenerator.svg"><metadata
     id="metadata48"><rdf:RDF><cc:Work
         rdf:about=""><dc:format>image/svg+xml</dc:format><dc:type
           rdf:resource="http://purl.org/dc/dcmitype/StillImage" /></cc:Work></rdf:RDF></metadata><defs
     id="defs46" /><sodipodi:namedview
     pagecolor="#ffffff"
     bordercolor="#666666"
     borderopacity="1"
     objecttolerance="10"
     gridtolerance="10"
     guidetolerance="10"
     inkscape:pageopacity="0"
     inkscape:pageshadow="2"
     inkscape:window-width="1477"
     inkscape:window-height="919"
     id="namedview44"
     showgrid="false"
     inkscape:zoom="3.5132042"
     inkscape:cx="15.752237"
     inkscape:cy="21.964841"
     inkscape:window-x="251"
     inkscape:window-y="233"
     inkscape:window-maximized="0"
     inkscape:current-layer="svg2" /><rect
     x="0"
     y="0"
     width="45"
     height="380"
     style="fill:rgb(235,235,235);"
     id="rect4" /><path
     d="M20.659,360.357C20.525,361.323 20.959,362.007 22.042,362.007C23.025,362.007 24.059,361.157 24.542,360.223C24.775,359.757 24.759,359.307 24.692,359.173C24.625,359.023 24.475,359.04 24.392,359.19C23.742,360.357 22.892,361.457 22.192,361.49C21.592,361.523 21.525,360.823 21.959,359.873C22.342,359.023 23.175,357.773 23.542,357.023C23.942,356.19 23.809,355.457 23.559,355.157C23.425,354.99 23.309,355.023 23.142,355.257C22.609,355.973 22.125,357.123 21.075,358.823C20.175,360.273 19.259,361.44 18.609,361.39C18.059,361.357 18.409,360.24 18.525,359.94C18.875,359.14 19.209,358.473 19.825,357.49C20.425,356.54 20.509,355.79 20.142,355.24C20.009,355.09 19.825,355.057 19.709,355.257C18.275,357.573 16.225,361.84 15.525,363.54C15.125,364.523 15.292,365.023 15.542,365.373C15.642,365.523 15.759,365.49 15.825,365.34C16.392,364.023 16.992,362.773 17.559,361.657C17.725,361.807 17.959,361.89 18.259,361.923C19.192,361.99 20.075,361.14 20.659,360.357Z"
     style="fill-rule:nonzero;"
     id="path40" /><path
     d="M26.209,355.223C25.492,356.54 24.792,357.94 24.442,358.773C23.642,360.69 24.525,361.923 25.625,361.957C26.959,362.007 28.059,360.54 28.275,360.057C28.442,359.673 28.525,359.373 28.442,359.107C28.375,358.873 28.192,358.907 28.092,359.107C27.475,360.357 26.525,361.54 25.775,361.507C25.075,361.473 24.892,360.44 25.442,359.223C26.075,357.823 27.025,356.207 27.675,355.09C28.092,355.023 28.609,354.973 28.975,355.023C29.225,355.023 29.292,354.907 29.175,354.707C29.042,354.49 28.792,354.19 28.142,354.207C28.542,353.34 28.542,352.79 28.359,352.323C28.275,352.123 28.109,352.107 27.959,352.323C27.675,352.69 27.209,353.473 26.692,354.39C26.242,354.44 25.775,354.473 25.309,354.457C25.059,354.44 24.959,354.557 25.125,354.79C25.259,354.973 25.642,355.223 26.209,355.223Z"
     style="fill-rule:nonzero;"
     id="path42" /></svg>