<?xml version="1.0" encoding="UTF-8" standalone="no"?>
<svg
   xmlns:dc="http://purl.org/dc/elements/1.1/"
   xmlns:cc="http://creativecommons.org/ns#"
   xmlns:rdf="http://www.w3.org/1999/02/22-rdf-syntax-ns#"
   xmlns:svg="http://www.w3.org/2000/svg"
   xmlns="http://www.w3.org/2000/svg"
   xmlns:sodipodi="http://sodipodi.sourceforge.net/DTD/sodipodi-0.dtd"
   xmlns:inkscape="http://www.inkscape.org/namespaces/inkscape"
   width="90"
   height="380"
   viewBox="0 0 90 380"
   version="1.1"
   xml:space="preserve"
   style="clip-rule:evenodd;fill-rule:evenodd;stroke-linecap:round;stroke-linejoin:round;stroke-miterlimit:1.5"
   id="svg2"
   inkscape:version="0.92.4 (5da689c313, 2019-01-14)"
   sodipodi:docname="NoiseGenerator.svg"><metadata
   id="metadata48"><rdf:RDF><cc:Work
       rdf:about=""><dc:format>image/svg+xml</dc:format><dc:type
         rdf:resource="http://purl.org/dc/dcmitype/StillImage" /><dc:title /></cc:Work></rdf:RDF></metadata><defs
   id="defs46" /><sodipodi:namedview
   pagecolor="#ffffff"
   bordercolor="#666666"
   borderopacity="1"
   objecttolerance="10"
   gridtolerance="10"
   guidetolerance="10"
   inkscape:pageopacity="0"
   inkscape:pageshadow="2"
   inkscape:window-width="1920"
   inkscape:window-height="1001"
   id="namedview44"
   showgrid="false"
   inkscape:zoom="3.5132042"
   inkscape:cx="42.379423"
   inkscape:cy="184.03563"
   inkscape:window-x="-9"
   inkscape:window-y="-9"
   inkscape:window-maximized="1"
   inkscape:current-layer="svg2"
   inkscape:snap-bbox="false"
   inkscape:object-nodes="true" /><path
   style="fill:#ebebeb"
   d="m 0,-0.20127119 89.97319,0 0,380.00000119 -89.97319,0 z"
   id="rect4" /><g
   id="g4139"
   transform="translate(22.728667,0)"><path
     inkscape:connector-curvature="0"
     id="path40"
     style="fill-rule:nonzero"
     d="m 20.659,360.357 c -0.134,0.966 0.3,1.65 1.383,1.65 0.983,0 2.017,-0.85 2.5,-1.784 0.233,-0.466 0.217,-0.916 0.15,-1.05 -0.067,-0.15 -0.217,-0.133 -0.3,0.017 -0.65,1.167 -1.5,2.267 -2.2,2.3 -0.6,0.033 -0.667,-0.667 -0.233,-1.617 0.383,-0.85 1.216,-2.1 1.583,-2.85 0.4,-0.833 0.267,-1.566 0.017,-1.866 -0.134,-0.167 -0.25,-0.134 -0.417,0.1 -0.533,0.716 -1.017,1.866 -2.067,3.566 -0.9,1.45 -1.816,2.617 -2.466,2.567 -0.55,-0.033 -0.2,-1.15 -0.084,-1.45 0.35,-0.8 0.684,-1.467 1.3,-2.45 0.6,-0.95 0.684,-1.7 0.317,-2.25 -0.133,-0.15 -0.317,-0.183 -0.433,0.017 -1.434,2.316 -3.484,6.583 -4.184,8.283 -0.4,0.983 -0.233,1.483 0.017,1.833 0.1,0.15 0.217,0.117 0.283,-0.033 0.567,-1.317 1.167,-2.567 1.734,-3.683 0.166,0.15 0.4,0.233 0.7,0.266 0.933,0.067 1.816,-0.783 2.4,-1.566 z" /><path
     inkscape:connector-curvature="0"
     id="path42"
     style="fill-rule:nonzero"
     d="m 26.209,355.223 c -0.717,1.317 -1.417,2.717 -1.767,3.55 -0.8,1.917 0.083,3.15 1.183,3.184 1.334,0.05 2.434,-1.417 2.65,-1.9 0.167,-0.384 0.25,-0.684 0.167,-0.95 -0.067,-0.234 -0.25,-0.2 -0.35,0 -0.617,1.25 -1.567,2.433 -2.317,2.4 -0.7,-0.034 -0.883,-1.067 -0.333,-2.284 0.633,-1.4 1.583,-3.016 2.233,-4.133 0.417,-0.067 0.934,-0.117 1.3,-0.067 0.25,0 0.317,-0.116 0.2,-0.316 -0.133,-0.217 -0.383,-0.517 -1.033,-0.5 0.4,-0.867 0.4,-1.417 0.217,-1.884 -0.084,-0.2 -0.25,-0.216 -0.4,0 -0.284,0.367 -0.75,1.15 -1.267,2.067 -0.45,0.05 -0.917,0.083 -1.383,0.067 -0.25,-0.017 -0.35,0.1 -0.184,0.333 0.134,0.183 0.517,0.433 1.084,0.433 z" /></g><g
   transform="scale(0.99840473,1.0015978)"
   style="font-style:normal;font-weight:normal;font-size:51.4723053px;line-height:125%;font-family:sans-serif;letter-spacing:0px;word-spacing:0px;fill:#000000;fill-opacity:1;stroke:none;stroke-width:1px;stroke-linecap:butt;stroke-linejoin:miter;stroke-opacity:1"
   id="text4143" /><g
   id="g4206"><g
     id="g4254"><path
       inkscape:connector-curvature="0"
       id="path4164"
       style="font-style:normal;font-weight:normal;font-size:13.02493286px;line-height:125%;font-family:sans-serif;text-align:center;letter-spacing:0px;word-spacing:0px;text-anchor:middle;fill:#000000;fill-opacity:1;stroke:none;stroke-width:1px;stroke-linecap:butt;stroke-linejoin:miter;stroke-opacity:1"
       d="m 27.856393,4.6153621 1.729874,0 4.210208,7.9434279 0,-7.9434279 1.246526,0 0,9.4952269 -1.729874,0 -4.210207,-7.9434283 0,7.9434283 -1.246527,0 0,-9.4952269 z" /><path
       inkscape:connector-curvature="0"
       id="path4166"
       style="font-style:normal;font-weight:normal;font-size:13.02493286px;line-height:125%;font-family:sans-serif;text-align:center;letter-spacing:0px;word-spacing:0px;text-anchor:middle;fill:#000000;fill-opacity:1;stroke:none;stroke-width:1px;stroke-linecap:butt;stroke-linejoin:miter;stroke-opacity:1"
       d="m 40.308941,7.807997 q -0.941255,0 -1.4882,0.7377403 -0.546946,0.7313805 -0.546946,2.0097067 0,1.278326 0.540586,2.016066 0.546945,0.731381 1.49456,0.731381 0.934895,0 1.481841,-0.737741 0.546945,-0.73774 0.546945,-2.009706 0,-1.2656065 -0.546945,-2.0033468 Q 41.243836,7.807997 40.308941,7.807997 Z m 0,-0.9921336 q 1.526359,0 2.397656,0.9921336 0.871297,0.9921336 0.871297,2.747447 0,1.748953 -0.871297,2.747447 -0.871297,0.992133 -2.397656,0.992133 -1.532719,0 -2.404016,-0.992133 -0.864937,-0.998494 -0.864937,-2.747447 0,-1.7553134 0.864937,-2.747447 0.871297,-0.9921336 2.404016,-0.9921336 z" /><path
       inkscape:connector-curvature="0"
       id="path4168"
       style="font-style:normal;font-weight:normal;font-size:13.02493286px;line-height:125%;font-family:sans-serif;text-align:center;letter-spacing:0px;word-spacing:0px;text-anchor:middle;fill:#000000;fill-opacity:1;stroke:none;stroke-width:1px;stroke-linecap:butt;stroke-linejoin:miter;stroke-opacity:1"
       d="m 45.511283,6.9875789 1.170209,0 0,7.1230101 -1.170209,0 0,-7.1230101 z m 0,-2.7728861 1.170209,0 0,1.4818405 -1.170209,0 0,-1.4818405 z" /><path
       inkscape:connector-curvature="0"
       id="path4170"
       style="font-style:normal;font-weight:normal;font-size:13.02493286px;line-height:125%;font-family:sans-serif;text-align:center;letter-spacing:0px;word-spacing:0px;text-anchor:middle;fill:#000000;fill-opacity:1;stroke:none;stroke-width:1px;stroke-linecap:butt;stroke-linejoin:miter;stroke-opacity:1"
       d="m 53.664585,7.1974533 0,1.1066105 Q 53.168518,8.0496706 52.634292,7.922474 52.100066,7.7952773 51.527682,7.7952773 q -0.871297,0 -1.310125,0.2671129 -0.432469,0.2671129 -0.432469,0.8013387 0,0.4070291 0.311632,0.6423428 0.311631,0.2289539 1.252886,0.4388284 l 0.40067,0.089038 q 1.246527,0.267113 1.768033,0.75682 0.527866,0.483347 0.527866,1.354643 0,0.992134 -0.788619,1.570879 -0.78226,0.578744 -2.155983,0.578744 -0.572385,0 -1.195648,-0.114477 -0.616904,-0.108117 -1.303765,-0.330711 l 0,-1.208368 q 0.648702,0.337071 1.278326,0.508787 0.629623,0.165355 1.246526,0.165355 0.826778,0 1.271966,-0.279832 0.445189,-0.286193 0.445189,-0.801339 0,-0.476987 -0.324352,-0.73138 -0.317991,-0.254394 -1.405522,-0.489707 l -0.407029,-0.0954 Q 49.619733,10.689 49.136385,10.218373 48.653038,9.7413855 48.653038,8.9146075 q 0,-1.0048532 0.712301,-1.5517986 0.712301,-0.5469455 2.022426,-0.5469455 0.648703,0 1.221088,0.095398 0.572385,0.095397 1.055732,0.2861924 z" /><path
       inkscape:connector-curvature="0"
       id="path4172"
       style="font-style:normal;font-weight:normal;font-size:13.02493286px;line-height:125%;font-family:sans-serif;text-align:center;letter-spacing:0px;word-spacing:0px;text-anchor:middle;fill:#000000;fill-opacity:1;stroke:none;stroke-width:1px;stroke-linecap:butt;stroke-linejoin:miter;stroke-opacity:1"
       d="m 62.008683,10.256532 0,0.572384 -5.380417,0 q 0.07632,1.208368 0.725021,1.844351 0.655062,0.629624 1.818911,0.629624 0.674142,0 1.303765,-0.165356 0.635984,-0.165356 1.259247,-0.496067 l 0,1.106611 q -0.629623,0.267113 -1.291046,0.407029 -0.661422,0.139916 -1.341924,0.139916 -1.704434,0 -2.702928,-0.992133 -0.992133,-0.992134 -0.992133,-2.683849 0,-1.7489533 0.941254,-2.772886 0.947615,-1.0302926 2.550293,-1.0302926 1.437321,0 2.270459,0.9285353 0.839498,0.9221754 0.839498,2.5121333 z M 60.838474,9.9131009 Q 60.825754,8.9527665 60.297888,8.3803817 59.776382,7.807997 58.911445,7.807997 q -0.979414,0 -1.570878,0.5533053 -0.585104,0.5533052 -0.674142,1.5581584 l 4.172049,-0.00636 z" /><path
       inkscape:connector-curvature="0"
       id="path4174"
       style="font-style:normal;font-weight:normal;font-size:13.02493286px;line-height:125%;font-family:sans-serif;text-align:center;letter-spacing:0px;word-spacing:0px;text-anchor:middle;fill:#000000;fill-opacity:1;stroke:none;stroke-width:1px;stroke-linecap:butt;stroke-linejoin:miter;stroke-opacity:1"
       d="m 19.296061,29.037111 0,-2.550292 -2.098744,0 0,-1.055732 3.37071,0 0,4.076652 q -0.7441,0.527866 -1.640836,0.801338 -0.896736,0.267113 -1.914309,0.267113 -2.225941,0 -3.485187,-1.297405 -1.252887,-1.303765 -1.252887,-3.625104 0,-2.327698 1.252887,-3.625103 1.259246,-1.303765 3.485187,-1.303765 0.928535,0 1.761673,0.228954 0.839498,0.228954 1.545439,0.674142 l 0,1.367363 q -0.712301,-0.604184 -1.51364,-0.909456 -0.801339,-0.305271 -1.685355,-0.305271 -1.742594,0 -2.62025,0.973054 -0.871297,0.973054 -0.871297,2.900082 0,1.920669 0.871297,2.893723 0.877656,0.973054 2.62025,0.973054 0.680502,0 1.214728,-0.114477 0.534225,-0.120836 0.960334,-0.36887 z" /><path
       inkscape:connector-curvature="0"
       id="path4176"
       style="font-style:normal;font-weight:normal;font-size:13.02493286px;line-height:125%;font-family:sans-serif;text-align:center;letter-spacing:0px;word-spacing:0px;text-anchor:middle;fill:#000000;fill-opacity:1;stroke:none;stroke-width:1px;stroke-linecap:butt;stroke-linejoin:miter;stroke-opacity:1"
       d="m 28.963004,26.537698 0,0.572385 -5.380417,0 q 0.07632,1.208367 0.725021,1.84435 0.655062,0.629624 1.818911,0.629624 0.674142,0 1.303765,-0.165356 0.635983,-0.165356 1.259247,-0.496067 l 0,1.106611 q -0.629623,0.267113 -1.291046,0.407029 -0.661422,0.139916 -1.341924,0.139916 -1.704435,0 -2.702928,-0.992133 -0.992133,-0.992134 -0.992133,-2.683849 0,-1.748953 0.941254,-2.772886 0.947615,-1.030292 2.550292,-1.030292 1.437322,0 2.27046,0.928535 0.839498,0.922175 0.839498,2.512133 z m -1.170209,-0.343431 q -0.01272,-0.960334 -0.540586,-1.532719 -0.521506,-0.572385 -1.386443,-0.572385 -0.979414,0 -1.570878,0.553305 -0.585104,0.553306 -0.674142,1.558159 l 4.172049,-0.0064 z" /><path
       inkscape:connector-curvature="0"
       id="path4178"
       style="font-style:normal;font-weight:normal;font-size:13.02493286px;line-height:125%;font-family:sans-serif;text-align:center;letter-spacing:0px;word-spacing:0px;text-anchor:middle;fill:#000000;fill-opacity:1;stroke:none;stroke-width:1px;stroke-linecap:butt;stroke-linejoin:miter;stroke-opacity:1"
       d="m 36.779236,26.09251 0,4.299245 -1.170209,0 0,-4.261086 q 0,-1.011213 -0.39431,-1.51364 -0.394309,-0.502427 -1.182928,-0.502427 -0.947615,0 -1.49456,0.604184 -0.546946,0.604184 -0.546946,1.647196 l 0,4.025773 -1.176568,0 0,-7.12301 1.176568,0 0,1.10661 q 0.419749,-0.642342 0.985774,-0.960334 0.572385,-0.317991 1.316485,-0.317991 1.227447,0 1.85707,0.763179 0.629624,0.75682 0.629624,2.232301 z" /><path
       inkscape:connector-curvature="0"
       id="path4180"
       style="font-style:normal;font-weight:normal;font-size:13.02493286px;line-height:125%;font-family:sans-serif;text-align:center;letter-spacing:0px;word-spacing:0px;text-anchor:middle;fill:#000000;fill-opacity:1;stroke:none;stroke-width:1px;stroke-linecap:butt;stroke-linejoin:miter;stroke-opacity:1"
       d="m 45.218729,26.537698 0,0.572385 -5.380416,0 q 0.07632,1.208367 0.725021,1.84435 0.655062,0.629624 1.818911,0.629624 0.674142,0 1.303765,-0.165356 0.635983,-0.165356 1.259247,-0.496067 l 0,1.106611 q -0.629623,0.267113 -1.291046,0.407029 -0.661422,0.139916 -1.341924,0.139916 -1.704435,0 -2.702928,-0.992133 -0.992134,-0.992134 -0.992134,-2.683849 0,-1.748953 0.941255,-2.772886 0.947615,-1.030292 2.550292,-1.030292 1.437322,0 2.27046,0.928535 0.839497,0.922175 0.839497,2.512133 z m -1.170208,-0.343431 q -0.01272,-0.960334 -0.540586,-1.532719 -0.521506,-0.572385 -1.386443,-0.572385 -0.979414,0 -1.570878,0.553305 -0.585105,0.553306 -0.674142,1.558159 l 4.172049,-0.0064 z" /><path
       inkscape:connector-curvature="0"
       id="path4182"
       style="font-style:normal;font-weight:normal;font-size:13.02493286px;line-height:125%;font-family:sans-serif;text-align:center;letter-spacing:0px;word-spacing:0px;text-anchor:middle;fill:#000000;fill-opacity:1;stroke:none;stroke-width:1px;stroke-linecap:butt;stroke-linejoin:miter;stroke-opacity:1"
       d="m 51.241491,24.362636 q -0.197155,-0.114477 -0.432468,-0.165356 -0.228954,-0.05724 -0.508787,-0.05724 -0.992133,0 -1.526359,0.648702 -0.527866,0.642343 -0.527866,1.850711 l 0,3.7523 -1.176569,0 0,-7.12301 1.176569,0 0,1.10661 q 0.36887,-0.648702 0.960334,-0.960334 0.591465,-0.317991 1.437322,-0.317991 0.120837,0 0.267113,0.01908 0.146276,0.01272 0.324351,0.04452 l 0.0064,1.202008 z" /><path
       inkscape:connector-curvature="0"
       id="path4184"
       style="font-style:normal;font-weight:normal;font-size:13.02493286px;line-height:125%;font-family:sans-serif;text-align:center;letter-spacing:0px;word-spacing:0px;text-anchor:middle;fill:#000000;fill-opacity:1;stroke:none;stroke-width:1px;stroke-linecap:butt;stroke-linejoin:miter;stroke-opacity:1"
       d="m 55.71881,26.811171 q -1.418242,0 -1.965188,0.324351 -0.546945,0.324351 -0.546945,1.10661 0,0.623264 0.407029,0.992134 0.413389,0.36251 1.11933,0.36251 0.973054,0 1.558159,-0.686861 0.591464,-0.693222 0.591464,-1.837991 l 0,-0.260753 -1.163849,0 z m 2.334058,-0.483348 0,4.063932 -1.170209,0 0,-1.081171 q -0.40067,0.648703 -0.998494,0.960334 -0.597824,0.305272 -1.462761,0.305272 -1.09389,0 -1.742593,-0.610544 -0.642343,-0.616903 -0.642343,-1.647196 0,-1.202008 0.801339,-1.812551 0.807698,-0.610544 2.404015,-0.610544 l 1.640837,0 0,-0.114477 q 0,-0.807698 -0.534226,-1.246527 -0.527866,-0.445188 -1.4882,-0.445188 -0.610544,0 -1.189289,0.146276 -0.578744,0.146276 -1.11297,0.438828 l 0,-1.081171 q 0.642343,-0.248033 1.246527,-0.36887 0.604184,-0.127196 1.176568,-0.127196 1.545439,0 2.308619,0.801338 0.76318,0.801339 0.76318,2.429455 z" /><path
       inkscape:connector-curvature="0"
       id="path4186"
       style="font-style:normal;font-weight:normal;font-size:13.02493286px;line-height:125%;font-family:sans-serif;text-align:center;letter-spacing:0px;word-spacing:0px;text-anchor:middle;fill:#000000;fill-opacity:1;stroke:none;stroke-width:1px;stroke-linecap:butt;stroke-linejoin:miter;stroke-opacity:1"
       d="m 61.652531,21.246319 0,2.022426 2.410376,0 0,0.909456 -2.410376,0 0,3.866777 q 0,0.871296 0.235314,1.11933 0.241673,0.248033 0.973054,0.248033 l 1.202008,0 0,0.979414 -1.202008,0 q -1.354644,0 -1.86979,-0.502427 -0.515147,-0.508786 -0.515147,-1.84435 l 0,-3.866777 -0.858577,0 0,-0.909456 0.858577,0 0,-2.022426 1.176569,0 z" /><path
       inkscape:connector-curvature="0"
       id="path4188"
       style="font-style:normal;font-weight:normal;font-size:13.02493286px;line-height:125%;font-family:sans-serif;text-align:center;letter-spacing:0px;word-spacing:0px;text-anchor:middle;fill:#000000;fill-opacity:1;stroke:none;stroke-width:1px;stroke-linecap:butt;stroke-linejoin:miter;stroke-opacity:1"
       d="m 68.368512,24.089163 q -0.941255,0 -1.4882,0.73774 -0.546945,0.731381 -0.546945,2.009707 0,1.278326 0.540585,2.016066 0.546946,0.731381 1.49456,0.731381 0.934895,0 1.481841,-0.737741 0.546945,-0.73774 0.546945,-2.009706 0,-1.265606 -0.546945,-2.003347 -0.546946,-0.7441 -1.481841,-0.7441 z m 0,-0.992133 q 1.52636,0 2.397657,0.992133 0.871296,0.992134 0.871296,2.747447 0,1.748953 -0.871296,2.747447 -0.871297,0.992133 -2.397657,0.992133 -1.532719,0 -2.404016,-0.992133 -0.864936,-0.998494 -0.864936,-2.747447 0,-1.755313 0.864936,-2.747447 0.871297,-0.992133 2.404016,-0.992133 z" /><path
       inkscape:connector-curvature="0"
       id="path4190"
       style="font-style:normal;font-weight:normal;font-size:13.02493286px;line-height:125%;font-family:sans-serif;text-align:center;letter-spacing:0px;word-spacing:0px;text-anchor:middle;fill:#000000;fill-opacity:1;stroke:none;stroke-width:1px;stroke-linecap:butt;stroke-linejoin:miter;stroke-opacity:1"
       d="M 77.698385,24.362636 Q 77.50123,24.248159 77.265917,24.19728 77.036963,24.14004 76.75713,24.14004 q -0.992133,0 -1.526359,0.648702 -0.527866,0.642343 -0.527866,1.850711 l 0,3.7523 -1.176569,0 0,-7.12301 1.176569,0 0,1.10661 q 0.36887,-0.648702 0.960334,-0.960334 0.591465,-0.317991 1.437322,-0.317991 0.120837,0 0.267113,0.01908 0.146276,0.01272 0.324351,0.04452 l 0.0064,1.202008 z" /></g></g><g
   style="font-style:normal;font-weight:normal;font-size:15px;line-height:125%;font-family:sans-serif;letter-spacing:0px;word-spacing:0px;fill:#000000;fill-opacity:1;stroke:none;stroke-width:1px;stroke-linecap:butt;stroke-linejoin:miter;stroke-opacity:1"
   id="text4226"
   transform="translate(-1.9455744,0)"><path
     d="m 71.95417,93.643257 0,1.170044 q -0.560303,-0.52185 -1.19751,-0.780029 -0.631713,-0.258179 -1.345825,-0.258179 -1.40625,0 -2.15332,0.862427 -0.74707,0.856933 -0.74707,2.48291 0,1.620483 0.74707,2.48291 0.74707,0.85693 2.15332,0.85693 0.714112,0 1.345825,-0.25817 0.637207,-0.258184 1.19751,-0.780034 l 0,1.159054 q -0.582275,0.39551 -1.235962,0.59327 -0.648193,0.19775 -1.373291,0.19775 -1.862182,0 -2.933349,-1.13709 -1.071167,-1.142574 -1.071167,-3.11462 0,-1.977539 1.071167,-3.114624 1.071167,-1.142578 2.933349,-1.142578 0.736084,0 1.384278,0.197754 0.653686,0.19226 1.224975,0.582275 z"
     style="font-size:11.25px"
     id="path4292"
     inkscape:connector-curvature="0" /><path
     d="m 75.793892,101.21284 -3.131104,-8.201297 1.159058,0 2.598267,6.904908 2.603759,-6.904908 1.153565,0 -3.125611,8.201297 -1.257934,0 z"
     style="font-size:11.25px"
     id="path4294"
     inkscape:connector-curvature="0" /></g><g
   style="font-style:normal;font-weight:normal;font-size:15px;line-height:125%;font-family:sans-serif;letter-spacing:0px;word-spacing:0px;fill:#000000;fill-opacity:1;stroke:none;stroke-width:1px;stroke-linecap:butt;stroke-linejoin:miter;stroke-opacity:1"
   id="text4234"
   transform="translate(-1.9455744,0)"><path
     d="m 71.95417,45.117504 0,1.170044 q -0.560303,-0.521851 -1.19751,-0.780029 -0.631713,-0.258179 -1.345825,-0.258179 -1.40625,0 -2.15332,0.862427 -0.74707,0.856933 -0.74707,2.48291 0,1.620483 0.74707,2.48291 0.74707,0.856934 2.15332,0.856934 0.714112,0 1.345825,-0.258179 0.637207,-0.258179 1.19751,-0.780029 l 0,1.159057 q -0.582275,0.395508 -1.235962,0.593262 -0.648193,0.197754 -1.373291,0.197754 -1.862182,0 -2.933349,-1.137085 -1.071167,-1.142578 -1.071167,-3.114624 0,-1.977539 1.071167,-3.114624 1.071167,-1.142578 2.933349,-1.142578 0.736084,0 1.384278,0.197754 0.653686,0.19226 1.224975,0.582275 z"
     style="font-size:11.25px"
     id="path4297"
     inkscape:connector-curvature="0" /><path
     d="m 75.793892,52.687084 -3.131104,-8.201294 1.159058,0 2.598267,6.904907 2.603759,-6.904907 1.153565,0 -3.125611,8.201294 -1.257934,0 z"
     style="font-size:11.25px"
     id="path4299"
     inkscape:connector-curvature="0" /></g><g
   style="font-style:normal;font-weight:normal;font-size:15px;line-height:125%;font-family:sans-serif;letter-spacing:0px;word-spacing:0px;fill:#000000;fill-opacity:1;stroke:none;stroke-width:1px;stroke-linecap:butt;stroke-linejoin:miter;stroke-opacity:1"
   id="text4238"
   transform="translate(0.0544256,0)"><path
     d="m 9.0535555,45.03236 -1.3378906,3.62793 2.6806641,0 -1.3427735,-3.62793 z m -0.5566406,-0.97168 1.118164,0 2.7783201,7.290039 -1.02539,0 -0.664063,-1.870117 -3.2861327,0 -0.6640625,1.870117 -1.0400391,0 2.7832032,-7.290039 z"
     style="font-size:10px"
     id="path4302"
     inkscape:connector-curvature="0" /><path
     d="m 17.67172,46.931774 q 0.336914,-0.605469 0.805664,-0.893555 0.46875,-0.288085 1.103515,-0.288085 0.854492,0 1.31836,0.600585 0.463867,0.595704 0.463867,1.699219 l 0,3.300781 -0.903321,0 0,-3.271484 q 0,-0.786133 -0.27832,-1.166992 -0.27832,-0.380859 -0.849609,-0.380859 -0.698242,0 -1.103516,0.463867 -0.405273,0.463867 -0.405273,1.264648 l 0,3.09082 -0.903321,0 0,-3.271484 q 0,-0.791016 -0.27832,-1.166992 -0.27832,-0.380859 -0.859375,-0.380859 -0.688476,0 -1.09375,0.46875 -0.405273,0.463867 -0.405273,1.259765 l 0,3.09082 -0.903321,0 0,-5.46875 0.903321,0 0,0.84961 q 0.307617,-0.50293 0.737304,-0.742188 0.429688,-0.239257 1.020508,-0.239257 0.595703,0 1.010742,0.302734 0.419922,0.302734 0.620118,0.878906 z"
     style="font-size:10px"
     id="path4304"
     inkscape:connector-curvature="0" /><path
     d="m 24.00961,50.530407 0,2.900391 -0.90332,0 0,-7.548829 0.90332,0 0,0.830079 q 0.283203,-0.488282 0.712891,-0.722657 0.43457,-0.239257 1.035156,-0.239257 0.996094,0 1.616211,0.791015 0.625,0.791016 0.625,2.080078 0,1.289063 -0.625,2.080078 -0.620117,0.791016 -1.616211,0.791016 -0.600586,0 -1.035156,-0.234375 -0.429688,-0.239258 -0.712891,-0.727539 z m 3.056641,-1.90918 q 0,-0.991211 -0.410156,-1.552734 -0.405274,-0.566406 -1.118165,-0.566406 -0.71289,0 -1.123046,0.566406 -0.405274,0.561523 -0.405274,1.552734 0,0.991211 0.405274,1.557617 0.410156,0.561524 1.123046,0.561524 0.712891,0 1.118165,-0.561524 0.410156,-0.566406 0.410156,-1.557617 z"
     style="font-size:10px"
     id="path4306"
     inkscape:connector-curvature="0" /><path
     d="m 29.488126,43.753063 0.898437,0 0,7.597656 -0.898437,0 0,-7.597656 z"
     style="font-size:10px"
     id="path4308"
     inkscape:connector-curvature="0" /><path
     d="m 32.261563,45.881969 0.898438,0 0,5.46875 -0.898438,0 0,-5.46875 z m 0,-2.128906 0.898438,0 0,1.137696 -0.898438,0 0,-1.137696 z"
     style="font-size:10px"
     id="path4310"
     inkscape:connector-curvature="0" /><path
     d="m 35.923673,44.329235 0,1.552734 1.850586,0 0,0.698243 -1.850586,0 0,2.96875 q 0,0.668945 0.180664,0.859375 0.185547,0.190429 0.74707,0.190429 l 0.922852,0 0,0.751953 -0.922852,0 q -1.040039,0 -1.435547,-0.385742 -0.395508,-0.390625 -0.395508,-1.416015 l 0,-2.96875 -0.659179,0 0,-0.698243 0.659179,0 0,-1.552734 0.903321,0 z"
     style="font-size:10px"
     id="path4312"
     inkscape:connector-curvature="0" /><path
     d="m 38.868009,49.192516 0,-3.310547 0.898437,0 0,3.276368 q 0,0.776367 0.302734,1.166992 0.302735,0.385742 0.908204,0.385742 0.727539,0 1.147461,-0.463867 0.424804,-0.463867 0.424804,-1.264649 l 0,-3.100586 0.898438,0 0,5.46875 -0.898438,0 0,-0.839843 q -0.327148,0.498047 -0.761719,0.742187 -0.429687,0.239258 -1.000976,0.239258 -0.942383,0 -1.430664,-0.585937 -0.488281,-0.585938 -0.488281,-1.713868 z"
     style="font-size:10px"
     id="path4314"
     inkscape:connector-curvature="0" /><path
     d="m 48.907071,46.712048 0,-2.958985 0.898438,0 0,7.597656 -0.898438,0 0,-0.820312 q -0.283203,0.488281 -0.717773,0.727539 -0.429688,0.234375 -1.035157,0.234375 -0.991211,0 -1.616211,-0.791016 -0.620117,-0.791015 -0.620117,-2.080078 0,-1.289062 0.620117,-2.080078 0.625,-0.791015 1.616211,-0.791015 0.605469,0 1.035157,0.239257 0.43457,0.234375 0.717773,0.722657 z m -3.061523,1.909179 q 0,0.991211 0.405273,1.557617 0.410156,0.561524 1.123047,0.561524 0.712891,0 1.123047,-0.561524 0.410156,-0.566406 0.410156,-1.557617 0,-0.991211 -0.410156,-1.552734 -0.410156,-0.566406 -1.123047,-0.566406 -0.712891,0 -1.123047,0.566406 -0.405273,0.561523 -0.405273,1.552734 z"
     style="font-size:10px"
     id="path4316"
     inkscape:connector-curvature="0" /><path
     d="m 56.333829,48.391735 0,0.439453 -4.130859,0 q 0.05859,0.927735 0.55664,1.416016 0.50293,0.483398 1.396485,0.483398 0.517578,0 1.000976,-0.126953 0.488281,-0.126953 0.966797,-0.380859 l 0,0.849609 q -0.483398,0.205078 -0.991211,0.3125 -0.507812,0.107422 -1.030273,0.107422 -1.308594,0 -2.075196,-0.761719 -0.761718,-0.761718 -0.761718,-2.060547 0,-1.342773 0.722656,-2.128906 0.727539,-0.791015 1.958008,-0.791015 1.103515,0 1.743164,0.71289 0.644531,0.708008 0.644531,1.928711 z m -0.898438,-0.263672 q -0.0098,-0.737304 -0.415039,-1.176758 -0.40039,-0.439453 -1.064453,-0.439453 -0.751953,0 -1.206054,0.424805 -0.449219,0.424805 -0.517579,1.196289 l 3.203125,-0.0049 z"
     style="font-size:10px"
     id="path4318"
     inkscape:connector-curvature="0" /></g><g
   style="font-style:normal;font-weight:normal;font-size:15px;line-height:125%;font-family:sans-serif;letter-spacing:0px;word-spacing:0px;fill:#000000;fill-opacity:1;stroke:none;stroke-width:1px;stroke-linecap:butt;stroke-linejoin:miter;stroke-opacity:1"
   id="text4242"
   transform="translate(-1.9455744,0)"><path
     d="m 17.368985,94.366226 0,2.739258 1.240235,0 q 0.688476,0 1.064453,-0.356445 0.375976,-0.356446 0.375976,-1.015625 0,-0.654297 -0.375976,-1.010742 -0.375977,-0.356446 -1.064453,-0.356446 l -1.240235,0 z m -0.986328,-0.810547 2.226563,0 q 1.225585,0 1.850585,0.556641 0.629883,0.551758 0.629883,1.621094 0,1.079101 -0.629883,1.630859 -0.625,0.551758 -1.850585,0.551758 l -1.240235,0 0,2.929689 -0.986328,0 0,-7.290041 z"
     style="font-size:10px"
     id="path4321"
     inkscape:connector-curvature="0" /><path
     d="m 26.704923,97.886734 0,0.439453 -4.13086,0 q 0.05859,0.927735 0.556641,1.416016 0.50293,0.483397 1.396484,0.483397 0.517578,0 1.000977,-0.12695 0.488281,-0.126955 0.966797,-0.380861 l 0,0.849611 q -0.483399,0.20508 -0.991211,0.3125 -0.507813,0.10742 -1.030274,0.10742 -1.308593,0 -2.075195,-0.76172 -0.761719,-0.761718 -0.761719,-2.060546 0,-1.342773 0.722657,-2.128906 0.727539,-0.791016 1.958007,-0.791016 1.103516,0 1.743164,0.712891 0.644532,0.708008 0.644532,1.928711 z m -0.898438,-0.263672 q -0.0098,-0.737305 -0.415039,-1.176758 -0.400391,-0.439453 -1.064453,-0.439453 -0.751953,0 -1.206055,0.424805 -0.449218,0.424805 -0.517578,1.196289 l 3.203125,-0.0049 z"
     style="font-size:10px"
     id="path4323"
     inkscape:connector-curvature="0" /><path
     d="m 31.328946,96.216812 q -0.151367,-0.08789 -0.332031,-0.126953 -0.175781,-0.04395 -0.390625,-0.04395 -0.761719,0 -1.171875,0.498047 -0.405274,0.493164 -0.405274,1.420898 l 0,2.880866 -0.90332,0 0,-5.468757 0.90332,0 0,0.84961 q 0.283204,-0.498047 0.737305,-0.737305 0.454102,-0.244141 1.103516,-0.244141 0.09277,0 0.205078,0.01465 0.112305,0.0098 0.249023,0.03418 l 0.0049,0.922851 z"
     style="font-size:10px"
     id="path4325"
     inkscape:connector-curvature="0" /><path
     d="m 32.281095,95.376968 0.898437,0 0,5.468752 -0.898437,0 0,-5.468752 z m 0,-2.128906 0.898437,0 0,1.137695 -0.898437,0 0,-1.137695 z"
     style="font-size:10px"
     id="path4327"
     inkscape:connector-curvature="0" /><path
     d="m 37.173673,96.006851 q -0.722657,0 -1.142578,0.566406 -0.419922,0.561524 -0.419922,1.542969 0,0.981446 0.415039,1.547852 0.419922,0.561522 1.147461,0.561522 0.717773,0 1.137695,-0.566405 0.419922,-0.566406 0.419922,-1.542969 0,-0.971679 -0.419922,-1.538086 -0.419922,-0.571289 -1.137695,-0.571289 z m 0,-0.761719 q 1.171875,0 1.84082,0.761719 0.668945,0.761719 0.668945,2.109375 0,1.342774 -0.668945,2.109374 -0.668945,0.76172 -1.84082,0.76172 -1.176758,0 -1.845703,-0.76172 -0.664063,-0.7666 -0.664063,-2.109374 0,-1.347656 0.664063,-2.109375 0.668945,-0.761719 1.845703,-0.761719 z"
     style="font-size:10px"
     id="path4329"
     inkscape:connector-curvature="0" /><path
     d="m 44.766446,96.207047 0,-2.958985 0.898438,0 0,7.597658 -0.898438,0 0,-0.82031 q -0.283203,0.48828 -0.717773,0.72753 -0.429688,0.23438 -1.035157,0.23438 -0.991211,0 -1.616211,-0.79102 -0.620117,-0.791011 -0.620117,-2.080074 0,-1.289062 0.620117,-2.080078 0.625,-0.791016 1.616211,-0.791016 0.605469,0 1.035157,0.239258 0.43457,0.234375 0.717773,0.722657 z m -3.061523,1.909179 q 0,0.991211 0.405273,1.557617 0.410156,0.561527 1.123047,0.561527 0.712891,0 1.123047,-0.561527 0.410156,-0.566406 0.410156,-1.557617 0,-0.991211 -0.410156,-1.552734 -0.410156,-0.566406 -1.123047,-0.566406 -0.712891,0 -1.123047,0.566406 -0.405273,0.561523 -0.405273,1.552734 z"
     style="font-size:10px"
     id="path4331"
     inkscape:connector-curvature="0" /></g><g
   id="g4381"
   transform="translate(-2,10)"><g
     transform="translate(-14,26)"
     id="text4246"
     style="font-style:normal;font-weight:normal;font-size:15px;line-height:125%;font-family:sans-serif;letter-spacing:0px;word-spacing:0px;fill:#000000;fill-opacity:1;stroke:none;stroke-width:1px;stroke-linecap:butt;stroke-linejoin:miter;stroke-opacity:1"><path
       id="path4334"
       style="font-size:7.5px"
       d="m 67.635628,127.82889 -1.483155,1.99585 1.560059,2.10571 h -0.794678 l -1.193847,-1.61133 -1.193848,1.61133 h -0.794678 l 1.593018,-2.146 -1.45752,-1.95556 h 0.794678 l 1.087647,1.46118 1.087646,-1.46118 z"
       inkscape:connector-curvature="0" /><path
       id="path4336"
       style="font-size:7.5px"
       d="m 68.888069,131.30789 h 1.208496 v -4.17114 l -1.314697,0.26367 v -0.67383 l 1.307373,-0.26367 h 0.739746 v 4.84497 h 1.208496 v 0.62256 h -3.149414 z"
       inkscape:connector-curvature="0" /><path
       id="path4338"
       style="font-size:7.5px"
       d="m 74.939205,126.94998 q -0.571289,0 -0.860596,0.56397 -0.285644,0.5603 -0.285644,1.68823 0,1.12427 0.285644,1.68823 0.289307,0.5603 0.860596,0.5603 0.574951,0 0.860596,-0.5603 0.289307,-0.56396 0.289307,-1.68823 0,-1.12793 -0.289307,-1.68823 -0.285645,-0.56397 -0.860596,-0.56397 z m 0,-0.58594 q 0.91919,0 1.402588,0.72876 0.487061,0.7251 0.487061,2.10938 0,1.38061 -0.487061,2.10937 -0.483398,0.7251 -1.402588,0.7251 -0.919189,0 -1.40625,-0.7251 -0.483398,-0.72876 -0.483398,-2.10937 0,-1.38428 0.483398,-2.10938 0.487061,-0.72876 1.40625,-0.72876 z"
       inkscape:connector-curvature="0" /><path
       id="path4340"
       style="font-size:7.5px"
       d="m 79.730576,126.94998 q -0.571289,0 -0.860596,0.56397 -0.285644,0.5603 -0.285644,1.68823 0,1.12427 0.285644,1.68823 0.289307,0.5603 0.860596,0.5603 0.574951,0 0.860596,-0.5603 0.289306,-0.56396 0.289306,-1.68823 0,-1.12793 -0.289306,-1.68823 -0.285645,-0.56397 -0.860596,-0.56397 z m 0,-0.58594 q 0.919189,0 1.402588,0.72876 0.48706,0.7251 0.48706,2.10938 0,1.38061 -0.48706,2.10937 -0.483399,0.7251 -1.402588,0.7251 -0.91919,0 -1.40625,-0.7251 -0.483399,-0.72876 -0.483399,-2.10937 0,-1.38428 0.483399,-2.10938 0.48706,-0.72876 1.40625,-0.72876 z"
       inkscape:connector-curvature="0" /><path
       inkscape:connector-curvature="0"
       d="m 84.52195,126.94998 q -0.571289,0 -0.860596,0.56397 -0.285644,0.5603 -0.285644,1.68823 0,1.12427 0.285644,1.68823 0.289307,0.5603 0.860596,0.5603 0.574951,0 0.860596,-0.5603 0.289306,-0.56396 0.289306,-1.68823 0,-1.12793 -0.289306,-1.68823 -0.285645,-0.56397 -0.860596,-0.56397 z m 0,-0.58594 q 0.919189,0 1.402588,0.72876 0.48706,0.7251 0.48706,2.10938 0,1.38061 -0.48706,2.10937 -0.483399,0.7251 -1.402588,0.7251 -0.91919,0 -1.40625,-0.7251 -0.483399,-0.72876 -0.483399,-2.10937 0,-1.38428 0.483399,-2.10938 0.48706,-0.72876 1.40625,-0.72876 z"
       style="font-size:7.5px"
       id="path4431" /></g><g
     transform="translate(-18.872437,26)"
     id="text4250"
     style="font-style:normal;font-weight:normal;font-size:15px;line-height:125%;font-family:sans-serif;letter-spacing:0px;word-spacing:0px;fill:#000000;fill-opacity:1;stroke:none;stroke-width:1px;stroke-linecap:butt;stroke-linejoin:miter;stroke-opacity:1"><path
       id="path4343"
       style="font-size:7.5px"
       d="m 72.508064,138.49626 -1.483154,1.99585 1.560059,2.10571 h -0.794678 l -1.193848,-1.61132 -1.193847,1.61132 h -0.794678 l 1.593017,-2.14599 -1.457519,-1.95557 h 0.794678 l 1.087646,1.46118 1.087647,-1.46118 z"
       inkscape:connector-curvature="0" /><path
       id="path4345"
       style="font-size:7.5px"
       d="m 73.760506,141.97527 h 1.208496 v -4.17115 l -1.314697,0.26367 v -0.67382 l 1.307373,-0.26368 h 0.739746 v 4.84498 h 1.208496 v 0.62255 h -3.149414 z"
       inkscape:connector-curvature="0" /></g></g><g
   aria-label="Period Multiplier"
   style="font-style:normal;font-weight:normal;font-size:40px;line-height:1.25;font-family:sans-serif;letter-spacing:0px;word-spacing:0px;fill:#000000;fill-opacity:1;stroke:none"
   id="text3891"
   transform="matrix(1.2673399,0,0,1.2673399,-12.026713,-27.020486)"><path
     d="m 16.849876,140.29033 q 0,0.38672 -0.136718,0.71875 -0.132813,0.32812 -0.375,0.57031 -0.300782,0.30078 -0.710938,0.45313 -0.410156,0.14843 -1.035156,0.14843 h -0.773438 v 2.16797 h -0.773437 v -5.8164 h 1.578125 q 0.523437,0 0.886719,0.0898 0.363281,0.0859 0.644531,0.27344 0.332031,0.22265 0.511719,0.55469 0.183593,0.33203 0.183593,0.83984 z m -0.804687,0.0195 q 0,-0.30078 -0.105469,-0.52344 -0.105469,-0.22265 -0.320312,-0.36328 -0.1875,-0.12109 -0.429688,-0.17187 -0.238281,-0.0547 -0.605469,-0.0547 h -0.765625 v 2.32422 h 0.652344 q 0.46875,0 0.761719,-0.082 0.292969,-0.0859 0.476562,-0.26953 0.183594,-0.1875 0.257813,-0.39454 0.07813,-0.20703 0.07813,-0.46484 z"
     style="font-size:8px"
     id="path188"
     inkscape:connector-curvature="0" /><path
     d="M 21.279564,142.24345 H 18.06472 q 0,0.40235 0.121094,0.70313 0.121094,0.29687 0.332031,0.48828 0.203125,0.1875 0.480469,0.28125 0.28125,0.0937 0.617187,0.0937 0.445313,0 0.894532,-0.17578 0.453125,-0.17969 0.644531,-0.35156 h 0.03906 v 0.80078 q -0.371093,0.15625 -0.757812,0.26172 -0.386719,0.10547 -0.8125,0.10547 -1.085938,0 -1.695313,-0.58594 -0.609375,-0.58985 -0.609375,-1.67188 0,-1.07031 0.582032,-1.69922 0.585937,-0.6289 1.539062,-0.6289 0.882813,0 1.359375,0.51562 0.480469,0.51563 0.480469,1.46485 z m -0.714844,-0.5625 q -0.0039,-0.57812 -0.292969,-0.89453 -0.285156,-0.3164 -0.871093,-0.3164 -0.589844,0 -0.941407,0.34765 -0.347656,0.34766 -0.394531,0.86328 z"
     style="font-size:8px"
     id="path190"
     inkscape:connector-curvature="0" /><path
     d="m 25.115501,140.78642 h -0.03906 q -0.164063,-0.0391 -0.320313,-0.0547 -0.152343,-0.0195 -0.363281,-0.0195 -0.339844,0 -0.65625,0.15235 -0.316406,0.14844 -0.609375,0.38672 v 3.09765 h -0.734375 v -4.36328 h 0.734375 v 0.64453 q 0.4375,-0.35156 0.769531,-0.49609 0.335938,-0.14844 0.683594,-0.14844 0.191406,0 0.277344,0.0117 0.08594,0.008 0.257812,0.0352 z"
     style="font-size:8px"
     id="path192"
     inkscape:connector-curvature="0" /><path
     d="m 26.603783,139.25517 h -0.828125 v -0.76172 h 0.828125 z m -0.04687,5.09375 h -0.734375 v -4.36328 h 0.734375 z"
     style="font-size:8px"
     id="path194"
     inkscape:connector-curvature="0" /><path
     d="m 31.736595,142.16924 q 0,1.0664 -0.546875,1.68359 -0.546875,0.61719 -1.464844,0.61719 -0.925781,0 -1.472656,-0.61719 -0.542969,-0.61719 -0.542969,-1.68359 0,-1.06641 0.542969,-1.6836 0.546875,-0.62109 1.472656,-0.62109 0.917969,0 1.464844,0.62109 0.546875,0.61719 0.546875,1.6836 z m -0.757812,0 q 0,-0.84766 -0.332032,-1.25782 -0.332031,-0.41406 -0.921875,-0.41406 -0.597656,0 -0.929687,0.41406 -0.328125,0.41016 -0.328125,1.25782 0,0.82031 0.332031,1.24609 0.332031,0.42187 0.925781,0.42187 0.585938,0 0.917969,-0.41796 0.335938,-0.42188 0.335938,-1.25 z"
     style="font-size:8px"
     id="path196"
     inkscape:connector-curvature="0" /><path
     d="m 36.416283,144.34892 h -0.734375 v -0.45703 q -0.316407,0.27344 -0.660157,0.42578 -0.34375,0.15235 -0.746093,0.15235 -0.78125,0 -1.242188,-0.60157 -0.457031,-0.60156 -0.457031,-1.66796 0,-0.55469 0.15625,-0.98829 0.160156,-0.43359 0.429687,-0.73828 0.265625,-0.29687 0.617188,-0.45312 0.355469,-0.15625 0.734375,-0.15625 0.34375,0 0.609375,0.0742 0.265625,0.0703 0.558594,0.22265 v -1.89062 h 0.734375 z m -0.734375,-1.07422 v -2.5039 q -0.296875,-0.13281 -0.53125,-0.1836 -0.234375,-0.0508 -0.511719,-0.0508 -0.617188,0 -0.960938,0.42969 -0.34375,0.42969 -0.34375,1.21875 0,0.77734 0.265625,1.18359 0.265625,0.40235 0.851563,0.40235 0.3125,0 0.632812,-0.13672 0.320313,-0.14063 0.597657,-0.35938 z"
     style="font-size:8px"
     id="path198"
     inkscape:connector-curvature="0" /><path
     d="m 45.912376,144.34892 h -0.773437 v -5.01172 l -1.617188,3.41016 h -0.460937 l -1.605469,-3.41016 v 5.01172 h -0.722656 v -5.8164 h 1.054687 l 1.550782,3.23828 1.5,-3.23828 h 1.074218 z"
     style="font-size:8px"
     id="path200"
     inkscape:connector-curvature="0" /><path
     d="m 51.041283,144.34892 h -0.734375 v -0.48437 q -0.371094,0.29297 -0.710938,0.44922 -0.339844,0.15625 -0.75,0.15625 -0.6875,0 -1.070312,-0.41797 -0.382813,-0.42188 -0.382813,-1.23438 v -2.83203 h 0.734375 v 2.48438 q 0,0.33203 0.03125,0.57031 0.03125,0.23437 0.132813,0.40234 0.105468,0.17188 0.273437,0.25 0.167969,0.0781 0.488281,0.0781 0.285157,0 0.621094,-0.14844 0.339844,-0.14844 0.632813,-0.37891 v -3.25781 h 0.734375 z"
     style="font-size:8px"
     id="path202"
     inkscape:connector-curvature="0" /><path
     d="m 53.228783,144.34892 h -0.734375 v -6.07812 h 0.734375 z"
     style="font-size:8px"
     id="path204"
     inkscape:connector-curvature="0" /><path
     d="m 56.955345,144.30986 q -0.207031,0.0547 -0.453125,0.0898 -0.242187,0.0352 -0.433594,0.0352 -0.667968,0 -1.015625,-0.35937 -0.347656,-0.35938 -0.347656,-1.15235 v -2.32031 h -0.496094 v -0.61719 h 0.496094 v -1.2539 h 0.734375 v 1.2539 h 1.515625 v 0.61719 H 55.43972 v 1.98828 q 0,0.34375 0.01563,0.53906 0.01563,0.19141 0.109375,0.35938 0.08594,0.15625 0.234375,0.23047 0.152344,0.0703 0.460938,0.0703 0.179687,0 0.375,-0.0508 0.195312,-0.0547 0.28125,-0.0899 h 0.03906 z"
     style="font-size:8px"
     id="path206"
     inkscape:connector-curvature="0" /><path
     d="m 58.635033,139.25517 h -0.828125 v -0.76172 h 0.828125 z m -0.04687,5.09375 h -0.734375 v -4.36328 h 0.734375 z"
     style="font-size:8px"
     id="path208"
     inkscape:connector-curvature="0" /><path
     d="m 63.888939,142.11455 q 0,0.53125 -0.152344,0.97265 -0.152344,0.4375 -0.429687,0.74219 -0.257813,0.28906 -0.609375,0.44922 -0.347657,0.15625 -0.738282,0.15625 -0.339843,0 -0.617187,-0.0742 -0.273438,-0.0742 -0.558594,-0.23047 v 1.82813 h -0.734375 v -5.97266 h 0.734375 v 0.45703 q 0.292969,-0.24609 0.65625,-0.41015 0.367188,-0.16797 0.78125,-0.16797 0.789063,0 1.226563,0.59765 0.441406,0.59375 0.441406,1.65235 z m -0.757813,0.0195 q 0,-0.78906 -0.269531,-1.17969 -0.269531,-0.39062 -0.828125,-0.39062 -0.316406,0 -0.636719,0.13672 -0.320312,0.13671 -0.613281,0.35937 v 2.47266 q 0.3125,0.14062 0.535156,0.1914 0.226563,0.0508 0.511719,0.0508 0.613281,0 0.957031,-0.41406 0.34375,-0.41406 0.34375,-1.22656 z"
     style="font-size:8px"
     id="path210"
     inkscape:connector-curvature="0" /><path
     d="m 65.775658,144.34892 h -0.734375 v -6.07812 h 0.734375 z"
     style="font-size:8px"
     id="path212"
     inkscape:connector-curvature="0" /><path
     d="m 68.025658,139.25517 h -0.828125 v -0.76172 h 0.828125 z m -0.04687,5.09375 h -0.734375 v -4.36328 h 0.734375 z"
     style="font-size:8px"
     id="path214"
     inkscape:connector-curvature="0" /><path
     d="M 73.092064,142.24345 H 69.87722 q 0,0.40235 0.121094,0.70313 0.121094,0.29687 0.332031,0.48828 0.203125,0.1875 0.480469,0.28125 0.28125,0.0937 0.617187,0.0937 0.445313,0 0.894532,-0.17578 0.453125,-0.17969 0.644531,-0.35156 h 0.03906 v 0.80078 q -0.371093,0.15625 -0.757812,0.26172 -0.386719,0.10547 -0.8125,0.10547 -1.085938,0 -1.695313,-0.58594 -0.609375,-0.58985 -0.609375,-1.67188 0,-1.07031 0.582032,-1.69922 0.585937,-0.6289 1.539062,-0.6289 0.882813,0 1.359375,0.51562 0.480469,0.51563 0.480469,1.46485 z m -0.714844,-0.5625 q -0.0039,-0.57812 -0.292969,-0.89453 -0.285156,-0.3164 -0.871093,-0.3164 -0.589844,0 -0.941407,0.34765 -0.347656,0.34766 -0.394531,0.86328 z"
     style="font-size:8px"
     id="path216"
     inkscape:connector-curvature="0" /><path
     d="m 76.928001,140.78642 h -0.03906 q -0.164063,-0.0391 -0.320313,-0.0547 -0.152343,-0.0195 -0.363281,-0.0195 -0.339844,0 -0.65625,0.15235 -0.316406,0.14844 -0.609375,0.38672 v 3.09765 h -0.734375 v -4.36328 h 0.734375 v 0.64453 q 0.4375,-0.35156 0.769531,-0.49609 0.335938,-0.14844 0.683594,-0.14844 0.191406,0 0.277344,0.0117 0.08594,0.008 0.257812,0.0352 z"
     style="font-size:8px"
     id="path218"
     inkscape:connector-curvature="0" /></g>
</svg>