<?xml version="1.0" encoding="UTF-8" standalone="no"?>
<!DOCTYPE svg PUBLIC "-//W3C//DTD SVG 1.1//EN" "http://www.w3.org/Graphics/SVG/1.1/DTD/svg11.dtd">
<svg width="120" height="380" viewBox="0 0 120 380" version="1.1" xmlns="http://www.w3.org/2000/svg" xmlns:xlink="http://www.w3.org/1999/xlink" xml:space="preserve" xmlns:serif="http://www.serif.com/" style="fill-rule:evenodd;clip-rule:evenodd;stroke-linecap:round;stroke-linejoin:round;stroke-miterlimit:1.5;">
    <rect id="bg" x="0" y="0" width="120" height="380" style="fill:rgb(230,230,230);"/>
    <g id="Lines">
        <path d="M96,64L24,64" style="fill:none;stroke:black;stroke-width:2px;"/>
        <path d="M24,102.5L96,102.5" style="fill:none;stroke:black;stroke-width:2px;"/>
        <path d="M24,141L96,141" style="fill:none;stroke:black;stroke-width:2px;"/>
        <path d="M24,179.5L96,179.5" style="fill:none;stroke:black;stroke-width:2px;"/>
        <path d="M24,218L96,218" style="fill:none;stroke:black;stroke-width:2px;"/>
        <path d="M24,256.5L96,256.5" style="fill:none;stroke:black;stroke-width:2px;"/>
        <path d="M24,295L96,295" style="fill:none;stroke:black;stroke-width:2px;"/>
        <path d="M24,333.5L96,333.5" style="fill:none;stroke:black;stroke-width:2px;"/>
    </g>
    <g id="Pads">
        <path d="M110,40.399C110,37.524 107.666,35.19 104.792,35.19L87.208,35.19C84.334,35.19 82,37.524 82,40.399L82,72.792C82,75.666 84.334,78 87.208,78L104.792,78C107.666,78 110,75.666 110,72.792L110,40.399Z"/>
        <path d="M110,93.708C110,90.834 107.666,88.5 104.792,88.5L87.208,88.5C84.334,88.5 82,90.834 82,93.708L82,111.292C82,114.166 84.334,116.5 87.208,116.5L104.792,116.5C107.666,116.5 110,114.166 110,111.292L110,93.708Z"/>
        <path d="M110,132.208C110,129.334 107.666,127 104.792,127L87.208,127C84.334,127 82,129.334 82,132.208L82,149.792C82,152.666 84.334,155 87.208,155L104.792,155C107.666,155 110,152.666 110,149.792L110,132.208Z"/>
        <path d="M110,170.708C110,167.834 107.666,165.5 104.792,165.5L87.208,165.5C84.334,165.5 82,167.834 82,170.708L82,188.292C82,191.166 84.334,193.5 87.208,193.5L104.792,193.5C107.666,193.5 110,191.166 110,188.292L110,170.708Z"/>
        <path d="M110,209.208C110,206.334 107.666,204 104.792,204L87.208,204C84.334,204 82,206.334 82,209.208L82,226.792C82,229.666 84.334,232 87.208,232L104.792,232C107.666,232 110,229.666 110,226.792L110,209.208Z"/>
        <path d="M110,247.708C110,244.834 107.666,242.5 104.792,242.5L87.208,242.5C84.334,242.5 82,244.834 82,247.708L82,265.292C82,268.166 84.334,270.5 87.208,270.5L104.792,270.5C107.666,270.5 110,268.166 110,265.292L110,247.708Z"/>
        <path d="M110,286.208C110,283.334 107.666,281 104.792,281L87.208,281C84.334,281 82,283.334 82,286.208L82,303.792C82,306.666 84.334,309 87.208,309L104.792,309C107.666,309 110,306.666 110,303.792L110,286.208Z"/>
        <path d="M110,324.708C110,321.834 107.666,319.5 104.792,319.5L87.208,319.5C84.334,319.5 82,321.834 82,324.708L82,342.292C82,345.166 84.334,347.5 87.208,347.5L104.792,347.5C107.666,347.5 110,345.166 110,342.292L110,324.708Z"/>
    </g>
    <path d="M29.416,24.956C31.368,24.956 32.232,23.932 32.232,21.868C32.232,19.804 31.368,18.78 29.416,18.78L27.688,18.78C27.368,18.78 27.112,19.036 27.112,19.356L27.112,28.988C27.112,29.308 27.368,29.564 27.688,29.564L28.136,29.564C28.44,29.564 28.696,29.308 28.696,28.988L28.696,24.956L29.416,24.956ZM29.416,20.364C30.28,20.364 30.632,20.796 30.632,21.868C30.632,22.908 30.28,23.372 29.416,23.372L28.696,23.372L28.696,20.364L29.416,20.364Z" style="fill-rule:nonzero;"/>
    <path d="M33.224,26.62C33.224,28.316 33.928,29.548 35.848,29.548C37.704,29.548 38.472,28.412 38.472,26.62L38.472,19.34C38.472,19.02 38.216,18.764 37.896,18.764L37.448,18.764C37.144,18.764 36.888,19.02 36.888,19.34L36.888,26.62C36.888,27.388 36.664,27.964 35.848,27.964C35.064,27.964 34.808,27.468 34.808,26.62L34.808,19.34C34.808,19.02 34.552,18.764 34.232,18.764L33.784,18.764C33.48,18.764 33.224,19.02 33.224,19.34L33.224,26.62Z" style="fill-rule:nonzero;"/>
    <path d="M39.512,26.428C39.512,28.524 40.392,29.548 42.152,29.548C43.848,29.548 44.792,28.588 44.792,26.796C44.792,25.244 43.72,24.428 42.664,23.612L42.68,23.612C41.896,23.004 41.112,22.38 41.112,21.564C41.112,20.732 41.48,20.364 42.152,20.364C42.856,20.364 43.192,20.844 43.192,21.9L43.192,22.124C43.192,22.444 43.448,22.7 43.768,22.7L44.216,22.7C44.536,22.7 44.792,22.444 44.792,22.124L44.792,21.9C44.792,19.868 43.88,18.764 42.152,18.764C40.456,18.764 39.512,19.804 39.512,21.612C39.512,23.196 40.616,24.06 41.672,24.892L41.672,24.876C42.456,25.484 43.192,26.076 43.192,26.828C43.192,27.676 42.824,27.964 42.152,27.964C41.928,27.964 41.656,27.932 41.48,27.756C41.256,27.564 41.112,27.196 41.112,26.428L41.112,26.22C41.112,25.9 40.84,25.644 40.536,25.644L40.088,25.644C39.768,25.644 39.512,25.9 39.512,26.22L39.512,26.428Z" style="fill-rule:nonzero;"/>
    <path d="M47.48,23.388L47.48,19.356C47.48,19.036 47.224,18.78 46.904,18.78L46.456,18.78C46.136,18.78 45.88,19.036 45.88,19.356L45.88,28.988C45.88,29.308 46.136,29.564 46.456,29.564L46.904,29.564C47.224,29.564 47.48,29.308 47.48,28.988L47.48,24.972L49.256,24.972L49.256,28.988C49.256,29.308 49.512,29.564 49.832,29.564L50.28,29.564C50.6,29.564 50.856,29.308 50.856,28.988L50.856,19.356C50.856,19.036 50.6,18.78 50.28,18.78L49.832,18.78C49.512,18.78 49.256,19.036 49.256,19.356L49.256,23.388L47.48,23.388Z" style="fill-rule:nonzero;"/>
    <path d="M57.8,29.564C59.672,29.564 60.504,28.54 60.504,26.476C60.504,25.5 60.232,24.684 59.816,24.172C59.816,24.172 60.504,23.356 60.504,21.868C60.504,19.804 59.672,18.78 57.8,18.78L56.216,18.78C55.896,18.78 55.64,19.036 55.64,19.356L55.64,28.988C55.64,29.308 55.896,29.564 56.216,29.564L57.8,29.564ZM57.8,20.364C58.584,20.364 58.904,20.796 58.904,21.868C58.904,22.94 58.584,23.372 57.8,23.372L57.24,23.372L57.24,20.364L57.8,20.364ZM57.8,24.956C58.584,24.956 58.904,25.388 58.904,26.476C58.904,27.548 58.584,27.98 57.8,27.98L57.24,27.98L57.24,24.956L57.8,24.956Z" style="fill-rule:nonzero;"/>
    <path d="M61.608,26.62C61.608,28.316 62.312,29.548 64.232,29.548C66.088,29.548 66.856,28.412 66.856,26.62L66.856,19.34C66.856,19.02 66.6,18.764 66.28,18.764L65.832,18.764C65.528,18.764 65.272,19.02 65.272,19.34L65.272,26.62C65.272,27.388 65.048,27.964 64.232,27.964C63.448,27.964 63.192,27.468 63.192,26.62L63.192,19.34C63.192,19.02 62.936,18.764 62.616,18.764L62.168,18.764C61.864,18.764 61.608,19.02 61.608,19.34L61.608,26.62Z" style="fill-rule:nonzero;"/>
    <path d="M68.2,19.788C68.2,20.108 68.456,20.364 68.776,20.364L70.072,20.364L70.072,28.972C70.072,29.292 70.328,29.548 70.648,29.548L71.08,29.548C71.4,29.548 71.656,29.292 71.656,28.972L71.656,20.364L72.968,20.364C73.288,20.364 73.544,20.108 73.544,19.788L73.544,19.34C73.544,19.02 73.288,18.764 72.968,18.764L68.776,18.764C68.456,18.764 68.2,19.02 68.2,19.34L68.2,19.788Z" style="fill-rule:nonzero;"/>
    <path d="M74.616,19.788C74.616,20.108 74.872,20.364 75.192,20.364L76.488,20.364L76.488,28.972C76.488,29.292 76.744,29.548 77.064,29.548L77.496,29.548C77.816,29.548 78.072,29.292 78.072,28.972L78.072,20.364L79.384,20.364C79.704,20.364 79.96,20.108 79.96,19.788L79.96,19.34C79.96,19.02 79.704,18.764 79.384,18.764L75.192,18.764C74.872,18.764 74.616,19.02 74.616,19.34L74.616,19.788Z" style="fill-rule:nonzero;"/>
    <path d="M81.096,26.428C81.096,27.692 81.448,28.428 81.944,28.924C82.472,29.436 83.144,29.564 83.72,29.564C84.312,29.564 84.984,29.436 85.512,28.924C86.008,28.428 86.344,27.692 86.344,26.428L86.344,21.9C86.344,19.868 85.48,18.78 83.72,18.78C81.976,18.78 81.096,19.884 81.096,21.9L81.096,26.428ZM82.696,21.9C82.696,20.86 83.016,20.364 83.72,20.364C84.408,20.364 84.744,20.828 84.744,21.9L84.744,26.428C84.744,27.516 84.392,27.98 83.72,27.98C83.032,27.98 82.696,27.484 82.696,26.428L82.696,21.9Z" style="fill-rule:nonzero;"/>
    <path d="M92.312,29.564C92.632,29.564 92.888,29.308 92.888,28.988L92.888,19.356C92.888,19.036 92.632,18.78 92.312,18.78L91.864,18.78C91.544,18.78 91.288,19.036 91.288,19.356L91.288,24.636L89.064,19.132C89,18.956 88.744,18.78 88.536,18.78L88.152,18.78C87.848,18.78 87.576,19.036 87.576,19.356L87.576,28.988C87.576,29.308 87.848,29.564 88.152,29.564L88.616,29.564C88.92,29.564 89.192,29.308 89.192,28.988L89.192,23.708L91.416,29.212C91.48,29.388 91.752,29.564 91.944,29.564L92.312,29.564Z" style="fill-rule:nonzero;"/>
    <path d="M89.9,44.661C89.9,45.451 90.12,45.911 90.43,46.221C90.76,46.541 91.18,46.621 91.54,46.621C91.91,46.621 92.33,46.541 92.66,46.221C92.97,45.911 93.18,45.451 93.18,44.661L93.18,41.831C93.18,40.561 92.64,39.881 91.54,39.881C90.45,39.881 89.9,40.571 89.9,41.831L89.9,44.661ZM90.9,41.831C90.9,41.181 91.1,40.871 91.54,40.871C91.97,40.871 92.18,41.161 92.18,41.831L92.18,44.661C92.18,45.341 91.96,45.631 91.54,45.631C91.11,45.631 90.9,45.321 90.9,44.661L90.9,41.831Z" style="fill:rgb(230,230,230);fill-rule:nonzero;"/>
    <path d="M93.89,44.781C93.89,45.841 94.33,46.611 95.53,46.611C96.69,46.611 97.17,45.901 97.17,44.781L97.17,40.231C97.17,40.031 97.01,39.871 96.81,39.871L96.53,39.871C96.34,39.871 96.18,40.031 96.18,40.231L96.18,44.781C96.18,45.261 96.04,45.621 95.53,45.621C95.04,45.621 94.88,45.311 94.88,44.781L94.88,40.231C94.88,40.031 94.72,39.871 94.52,39.871L94.24,39.871C94.05,39.871 93.89,40.031 93.89,40.231L93.89,44.781Z" style="fill:rgb(230,230,230);fill-rule:nonzero;"/>
    <path d="M98.01,40.511C98.01,40.711 98.17,40.871 98.37,40.871L99.18,40.871L99.18,46.251C99.18,46.451 99.34,46.611 99.54,46.611L99.81,46.611C100.01,46.611 100.17,46.451 100.17,46.251L100.17,40.871L100.99,40.871C101.19,40.871 101.35,40.711 101.35,40.511L101.35,40.231C101.35,40.031 101.19,39.871 100.99,39.871L98.37,39.871C98.17,39.871 98.01,40.031 98.01,40.231L98.01,40.511Z" style="fill:rgb(230,230,230);fill-rule:nonzero;"/>
    <path d="M22.52,43.619C22.52,43.819 22.681,43.979 22.883,43.979L23.176,43.979C23.368,43.979 23.539,43.819 23.539,43.619C23.539,43.289 23.731,43.139 24.014,43.139C24.337,43.139 24.488,43.409 24.488,44.039L24.488,44.68C24.488,44.84 24.468,44.98 24.448,45.11C24.397,45.31 24.317,45.62 24.014,45.62C23.741,45.62 23.539,45.53 23.539,44.88L23.539,44.84C23.539,44.65 23.368,44.49 23.176,44.49L22.883,44.49C22.681,44.49 22.52,44.65 22.52,44.84L22.52,44.88C22.52,46.091 23.025,46.611 24.014,46.611C24.518,46.611 24.892,46.401 25.175,45.95C25.387,45.62 25.498,45.16 25.498,44.68L25.498,44.039C25.498,43.479 25.447,43.029 25.215,42.699C24.932,42.318 24.67,42.138 24.044,42.138C23.852,42.138 23.57,42.288 23.539,42.378L23.539,40.857L25.144,40.857C25.336,40.857 25.498,40.697 25.498,40.497L25.498,40.227C25.498,40.027 25.336,39.867 25.144,39.867L22.883,39.867C22.681,39.867 22.52,40.027 22.52,40.227L22.52,43.619Z" style="fill-rule:nonzero;"/>
    <path d="M27.193,40.137C27.153,39.987 26.991,39.857 26.84,39.857L26.557,39.857C26.305,39.857 26.144,40.067 26.204,40.297L27.637,46.321C27.668,46.481 27.829,46.601 27.991,46.601L28.203,46.601C28.354,46.601 28.516,46.481 28.556,46.321L29.989,40.297C30.04,40.067 29.878,39.857 29.636,39.857L29.343,39.857C29.192,39.857 29.02,39.987 28.99,40.137L28.092,43.949L27.193,40.137Z" style="fill-rule:nonzero;"/>
    <path d="M20.176,42.318L16.994,42.318" style="stroke:black;stroke-width:1px;"/>
    <path d="M18.585,40.764L18.585,43.872" style="fill:none;stroke:black;stroke-width:1px;"/>
    <path d="M16.994,45.704L20.176,45.704" style="fill:none;stroke:black;stroke-width:1px;"/>
    <path d="M58.451,360.091C58.322,361.019 58.742,361.675 59.791,361.675C60.743,361.675 61.744,360.859 62.212,359.963C62.438,359.515 62.422,359.083 62.357,358.955C62.292,358.811 62.147,358.827 62.066,358.971C61.437,360.091 60.614,361.147 59.936,361.179C59.355,361.211 59.29,360.539 59.71,359.627C60.081,358.811 60.888,357.611 61.243,356.891C61.631,356.091 61.502,355.387 61.259,355.099C61.13,354.939 61.017,354.971 60.856,355.195C60.339,355.883 59.871,356.987 58.855,358.619C57.983,360.011 57.095,361.131 56.466,361.083C55.933,361.051 56.272,359.979 56.385,359.691C56.724,358.923 57.047,358.283 57.644,357.339C58.225,356.427 58.306,355.707 57.951,355.179C57.822,355.035 57.644,355.003 57.531,355.195C56.143,357.419 54.158,361.515 53.48,363.147C53.093,364.091 53.254,364.571 53.496,364.907C53.593,365.051 53.706,365.019 53.77,364.875C54.319,363.611 54.9,362.411 55.449,361.339C55.61,361.483 55.836,361.563 56.127,361.595C57.031,361.659 57.886,360.843 58.451,360.091Z" style="fill-rule:nonzero;"/>
    <path d="M63.826,355.163C63.132,356.427 62.454,357.771 62.115,358.571C61.34,360.411 62.196,361.595 63.261,361.627C64.552,361.675 65.617,360.267 65.827,359.803C65.988,359.435 66.069,359.147 65.988,358.891C65.924,358.667 65.746,358.699 65.65,358.891C65.052,360.091 64.132,361.227 63.406,361.195C62.728,361.163 62.551,360.171 63.083,359.003C63.697,357.659 64.617,356.107 65.246,355.035C65.65,354.971 66.15,354.923 66.505,354.971C66.747,354.971 66.812,354.859 66.699,354.667C66.57,354.459 66.327,354.171 65.698,354.187C66.085,353.355 66.085,352.827 65.908,352.379C65.827,352.187 65.666,352.171 65.52,352.379C65.246,352.731 64.794,353.483 64.294,354.363C63.858,354.411 63.406,354.443 62.954,354.427C62.712,354.411 62.615,354.523 62.777,354.747C62.906,354.923 63.277,355.163 63.826,355.163Z" style="fill-rule:nonzero;"/>
</svg>
