<?xml version="1.0" encoding="UTF-8" standalone="no"?>
<!DOCTYPE svg PUBLIC "-//W3C//DTD SVG 1.1//EN" "http://www.w3.org/Graphics/SVG/1.1/DTD/svg11.dtd">
<svg width="45" height="380" viewBox="0 0 45 380" version="1.1" xmlns="http://www.w3.org/2000/svg" xmlns:xlink="http://www.w3.org/1999/xlink" xml:space="preserve" xmlns:serif="http://www.serif.com/" style="fill-rule:evenodd;clip-rule:evenodd;stroke-linecap:round;stroke-linejoin:round;stroke-miterlimit:1.5;">
    <rect x="0" y="0" width="45" height="380" style="fill:rgb(235,235,235);"/>
    <path d="M15.521,292.525C15.677,292.525 15.844,292.389 15.885,292.222L16.229,289.91L16.229,292.15C16.229,292.358 16.396,292.525 16.604,292.525L16.896,292.525C17.104,292.525 17.271,292.358 17.271,292.15L17.271,285.879C17.271,285.67 17.104,285.504 16.896,285.504L16.583,285.504C16.427,285.504 16.25,285.639 16.219,285.795L15.406,289.993L14.583,285.795C14.552,285.639 14.385,285.504 14.229,285.504L13.917,285.504C13.708,285.504 13.542,285.67 13.542,285.879L13.542,292.15C13.542,292.358 13.708,292.525 13.917,292.525L14.208,292.525C14.406,292.525 14.583,292.358 14.583,292.15L14.583,289.889L14.938,292.233C14.969,292.389 15.135,292.525 15.292,292.525L15.521,292.525Z" style="fill-rule:nonzero;"/>
    <path d="M18.177,290.483C18.177,291.306 18.406,291.785 18.729,292.108C19.073,292.441 19.51,292.525 19.885,292.525C20.271,292.525 20.708,292.441 21.052,292.108C21.375,291.785 21.594,291.306 21.594,290.483L21.594,287.535C21.594,286.212 21.031,285.504 19.885,285.504C18.75,285.504 18.177,286.222 18.177,287.535L18.177,290.483ZM19.219,287.535C19.219,286.858 19.427,286.535 19.885,286.535C20.333,286.535 20.552,286.837 20.552,287.535L20.552,290.483C20.552,291.191 20.323,291.493 19.885,291.493C19.438,291.493 19.219,291.17 19.219,290.483L19.219,287.535Z" style="fill-rule:nonzero;"/>
    <path d="M25.479,292.525C25.688,292.525 25.854,292.358 25.854,292.15L25.854,285.879C25.854,285.67 25.688,285.504 25.479,285.504L25.188,285.504C24.979,285.504 24.813,285.67 24.813,285.879L24.813,289.316L23.365,285.733C23.323,285.618 23.156,285.504 23.021,285.504L22.771,285.504C22.573,285.504 22.396,285.67 22.396,285.879L22.396,292.15C22.396,292.358 22.573,292.525 22.771,292.525L23.073,292.525C23.271,292.525 23.448,292.358 23.448,292.15L23.448,288.712L24.896,292.295C24.938,292.41 25.115,292.525 25.24,292.525L25.479,292.525Z" style="fill-rule:nonzero;"/>
    <path d="M26.677,290.483C26.677,291.306 26.906,291.785 27.229,292.108C27.573,292.441 28.01,292.525 28.385,292.525C28.771,292.525 29.208,292.441 29.552,292.108C29.875,291.785 30.094,291.306 30.094,290.483L30.094,287.535C30.094,286.212 29.531,285.504 28.385,285.504C27.25,285.504 26.677,286.222 26.677,287.535L26.677,290.483ZM27.719,287.535C27.719,286.858 27.927,286.535 28.385,286.535C28.833,286.535 29.052,286.837 29.052,287.535L29.052,290.483C29.052,291.191 28.823,291.493 28.385,291.493C27.938,291.493 27.719,291.17 27.719,290.483L27.719,287.535Z" style="fill-rule:nonzero;"/>
    <path d="M10.251,252.829C10.251,254.194 10.824,254.861 11.97,254.861C13.074,254.861 13.689,254.236 13.689,253.069C13.689,252.059 12.991,251.527 12.303,250.996L12.314,250.996C11.803,250.6 11.293,250.194 11.293,249.663C11.293,249.121 11.532,248.881 11.97,248.881C12.428,248.881 12.647,249.194 12.647,249.881L12.647,250.027C12.647,250.236 12.814,250.402 13.022,250.402L13.314,250.402C13.522,250.402 13.689,250.236 13.689,250.027L13.689,249.881C13.689,248.559 13.095,247.84 11.97,247.84C10.866,247.84 10.251,248.517 10.251,249.694C10.251,250.725 10.97,251.288 11.657,251.829L11.657,251.819C12.168,252.215 12.647,252.6 12.647,253.09C12.647,253.642 12.407,253.829 11.97,253.829C11.824,253.829 11.647,253.809 11.532,253.694C11.386,253.569 11.293,253.329 11.293,252.829L11.293,252.694C11.293,252.486 11.116,252.319 10.918,252.319L10.626,252.319C10.418,252.319 10.251,252.486 10.251,252.694L10.251,252.829Z" style="fill-rule:nonzero;"/>
    <path d="M14.043,248.506C14.043,248.715 14.209,248.881 14.418,248.881L15.261,248.881L15.261,254.486C15.261,254.694 15.428,254.861 15.636,254.861L15.918,254.861C16.126,254.861 16.293,254.694 16.293,254.486L16.293,248.881L17.147,248.881C17.355,248.881 17.522,248.715 17.522,248.506L17.522,248.215C17.522,248.006 17.355,247.84 17.147,247.84L14.418,247.84C14.209,247.84 14.043,248.006 14.043,248.215L14.043,248.506Z" style="fill-rule:nonzero;"/>
    <path d="M18.626,247.85C18.418,247.85 18.251,248.017 18.251,248.225L18.251,254.496C18.251,254.704 18.418,254.871 18.626,254.871L20.876,254.871C21.084,254.871 21.251,254.704 21.251,254.496L21.251,254.215C21.251,254.006 21.084,253.84 20.876,253.84L19.282,253.84L19.282,251.871L20.595,251.871C20.803,251.871 20.97,251.704 20.97,251.496L20.97,251.215C20.97,251.006 20.803,250.84 20.595,250.84L19.282,250.84L19.282,248.881L20.876,248.881C21.084,248.881 21.251,248.715 21.251,248.506L21.251,248.225C21.251,248.017 21.084,247.85 20.876,247.85L18.626,247.85Z" style="fill-rule:nonzero;"/>
    <path d="M25.293,252.746C25.293,252.204 25.147,251.777 24.845,251.454C24.876,251.423 24.897,251.402 24.928,251.371C25.251,251.048 25.366,250.527 25.366,249.881C25.366,248.486 24.918,247.84 23.636,247.84L22.324,247.84C22.116,247.84 21.949,248.006 21.949,248.215L21.949,254.486C21.949,254.694 22.116,254.861 22.324,254.861L22.616,254.861C22.814,254.861 22.98,254.694 22.98,254.486L22.98,251.934L23.449,251.934C23.959,251.934 24.251,252.225 24.251,252.746L24.251,254.486C24.251,254.694 24.418,254.861 24.626,254.861L24.918,254.861C25.126,254.861 25.293,254.694 25.293,254.486L25.293,252.746ZM22.98,248.881L23.636,248.881C24.178,248.881 24.334,249.173 24.334,249.881C24.334,250.59 24.032,250.881 23.449,250.881L22.98,250.881L22.98,248.881Z" style="fill-rule:nonzero;"/>
    <path d="M26.449,247.85C26.241,247.85 26.074,248.017 26.074,248.225L26.074,254.496C26.074,254.704 26.241,254.871 26.449,254.871L28.699,254.871C28.907,254.871 29.074,254.704 29.074,254.496L29.074,254.215C29.074,254.006 28.907,253.84 28.699,253.84L27.105,253.84L27.105,251.871L28.418,251.871C28.626,251.871 28.793,251.704 28.793,251.496L28.793,251.215C28.793,251.006 28.626,250.84 28.418,250.84L27.105,250.84L27.105,248.881L28.699,248.881C28.907,248.881 29.074,248.715 29.074,248.506L29.074,248.225C29.074,248.017 28.907,247.85 28.699,247.85L26.449,247.85Z" style="fill-rule:nonzero;"/>
    <path d="M29.761,252.829C29.761,253.652 29.991,254.131 30.314,254.454C30.657,254.788 31.095,254.871 31.47,254.871C31.855,254.871 32.293,254.788 32.636,254.454C32.959,254.131 33.178,253.652 33.178,252.829L33.178,249.881C33.178,248.559 32.616,247.85 31.47,247.85C30.334,247.85 29.761,248.569 29.761,249.881L29.761,252.829ZM30.803,249.881C30.803,249.204 31.011,248.881 31.47,248.881C31.918,248.881 32.136,249.184 32.136,249.881L32.136,252.829C32.136,253.538 31.907,253.84 31.47,253.84C31.022,253.84 30.803,253.517 30.803,252.829L30.803,249.881Z" style="fill-rule:nonzero;"/>
    <path d="M37.662,76.309C37.662,76.101 37.496,75.934 37.287,75.934L35.735,75.934L35.735,70.319C35.735,70.111 35.568,69.944 35.371,69.944L35.068,69.944C34.86,69.944 34.693,70.111 34.693,70.319L34.693,76.59C34.693,76.799 34.86,76.965 35.068,76.965L37.287,76.965C37.496,76.965 37.662,76.799 37.662,76.59L37.662,76.309Z" style="fill-rule:nonzero;"/>
    <path d="M38.053,114.84C38.053,114.299 37.908,113.871 37.606,113.549C37.637,113.517 37.658,113.496 37.689,113.465C38.012,113.142 38.126,112.621 38.126,111.976C38.126,110.58 37.678,109.934 36.397,109.934L35.085,109.934C34.876,109.934 34.71,110.101 34.71,110.309L34.71,116.58C34.71,116.788 34.876,116.955 35.085,116.955L35.376,116.955C35.574,116.955 35.741,116.788 35.741,116.58L35.741,114.028L36.21,114.028C36.72,114.028 37.012,114.319 37.012,114.84L37.012,116.58C37.012,116.788 37.178,116.955 37.387,116.955L37.678,116.955C37.887,116.955 38.053,116.788 38.053,116.58L38.053,114.84ZM35.741,110.976L36.397,110.976C36.939,110.976 37.095,111.267 37.095,111.976C37.095,112.684 36.793,112.976 36.21,112.976L35.741,112.976L35.741,110.976Z" style="fill-rule:nonzero;"/>
    <path d="M16.162,47.924C16.319,47.924 16.485,47.788 16.527,47.622L16.871,45.309L16.871,47.549C16.871,47.757 17.037,47.924 17.246,47.924L17.537,47.924C17.746,47.924 17.912,47.757 17.912,47.549L17.912,41.278C17.912,41.07 17.746,40.903 17.537,40.903L17.225,40.903C17.069,40.903 16.892,41.038 16.86,41.195L16.048,45.393L15.225,41.195C15.194,41.038 15.027,40.903 14.871,40.903L14.558,40.903C14.35,40.903 14.183,41.07 14.183,41.278L14.183,47.549C14.183,47.757 14.35,47.924 14.558,47.924L14.85,47.924C15.048,47.924 15.225,47.757 15.225,47.549L15.225,45.288L15.579,47.632C15.61,47.788 15.777,47.924 15.933,47.924L16.162,47.924Z" style="fill-rule:nonzero;"/>
    <path d="M18.819,45.882C18.819,46.705 19.048,47.184 19.371,47.507C19.715,47.84 20.152,47.924 20.527,47.924C20.912,47.924 21.35,47.84 21.694,47.507C22.017,47.184 22.235,46.705 22.235,45.882L22.235,42.934C22.235,41.611 21.673,40.903 20.527,40.903C19.392,40.903 18.819,41.622 18.819,42.934L18.819,45.882ZM19.86,42.934C19.86,42.257 20.069,41.934 20.527,41.934C20.975,41.934 21.194,42.236 21.194,42.934L21.194,45.882C21.194,46.59 20.965,46.893 20.527,46.893C20.079,46.893 19.86,46.57 19.86,45.882L19.86,42.934Z" style="fill-rule:nonzero;"/>
    <path d="M26.121,47.924C26.329,47.924 26.496,47.757 26.496,47.549L26.496,41.278C26.496,41.07 26.329,40.903 26.121,40.903L25.829,40.903C25.621,40.903 25.454,41.07 25.454,41.278L25.454,44.715L24.006,41.132C23.965,41.018 23.798,40.903 23.662,40.903L23.412,40.903C23.215,40.903 23.037,41.07 23.037,41.278L23.037,47.549C23.037,47.757 23.215,47.924 23.412,47.924L23.715,47.924C23.912,47.924 24.09,47.757 24.09,47.549L24.09,44.111L25.537,47.695C25.579,47.809 25.756,47.924 25.881,47.924L26.121,47.924Z" style="fill-rule:nonzero;"/>
    <path d="M27.319,45.882C27.319,46.705 27.548,47.184 27.871,47.507C28.215,47.84 28.652,47.924 29.027,47.924C29.412,47.924 29.85,47.84 30.194,47.507C30.517,47.184 30.735,46.705 30.735,45.882L30.735,42.934C30.735,41.611 30.173,40.903 29.027,40.903C27.892,40.903 27.319,41.622 27.319,42.934L27.319,45.882ZM28.36,42.934C28.36,42.257 28.569,41.934 29.027,41.934C29.475,41.934 29.694,42.236 29.694,42.934L29.694,45.882C29.694,46.59 29.465,46.893 29.027,46.893C28.579,46.893 28.36,46.57 28.36,45.882L28.36,42.934Z" style="fill-rule:nonzero;"/>
    <path d="M22.5,106.028L22.5,63.786" style="fill:none;stroke:black;stroke-width:0.52px;"/>
    <path d="M20.659,360.357C20.525,361.323 20.959,362.007 22.042,362.007C23.025,362.007 24.059,361.157 24.542,360.223C24.775,359.757 24.759,359.307 24.692,359.173C24.625,359.023 24.475,359.04 24.392,359.19C23.742,360.357 22.892,361.457 22.192,361.49C21.592,361.523 21.525,360.823 21.959,359.873C22.342,359.023 23.175,357.773 23.542,357.023C23.942,356.19 23.809,355.457 23.559,355.157C23.425,354.99 23.309,355.023 23.142,355.257C22.609,355.973 22.125,357.123 21.075,358.823C20.175,360.273 19.259,361.44 18.609,361.39C18.059,361.357 18.409,360.24 18.525,359.94C18.875,359.14 19.209,358.473 19.825,357.49C20.425,356.54 20.509,355.79 20.142,355.24C20.009,355.09 19.825,355.057 19.709,355.257C18.275,357.573 16.225,361.84 15.525,363.54C15.125,364.523 15.292,365.023 15.542,365.373C15.642,365.523 15.759,365.49 15.825,365.34C16.392,364.023 16.992,362.773 17.559,361.657C17.725,361.807 17.959,361.89 18.259,361.923C19.192,361.99 20.075,361.14 20.659,360.357Z" style="fill-rule:nonzero;"/>
    <path d="M26.209,355.223C25.492,356.54 24.792,357.94 24.442,358.773C23.642,360.69 24.525,361.923 25.625,361.957C26.959,362.007 28.059,360.54 28.275,360.057C28.442,359.673 28.525,359.373 28.442,359.107C28.375,358.873 28.192,358.907 28.092,359.107C27.475,360.357 26.525,361.54 25.775,361.507C25.075,361.473 24.892,360.44 25.442,359.223C26.075,357.823 27.025,356.207 27.675,355.09C28.092,355.023 28.609,354.973 28.975,355.023C29.225,355.023 29.292,354.907 29.175,354.707C29.042,354.49 28.792,354.19 28.142,354.207C28.542,353.34 28.542,352.79 28.359,352.323C28.275,352.123 28.109,352.107 27.959,352.323C27.675,352.69 27.209,353.473 26.692,354.39C26.242,354.44 25.775,354.473 25.309,354.457C25.059,354.44 24.959,354.557 25.125,354.79C25.259,354.973 25.642,355.223 26.209,355.223Z" style="fill-rule:nonzero;"/>
</svg>
