<?xml version="1.0" encoding="UTF-8" standalone="no"?>
<!DOCTYPE svg PUBLIC "-//W3C//DTD SVG 1.1//EN" "http://www.w3.org/Graphics/SVG/1.1/DTD/svg11.dtd">
<svg width="45" height="380recoder" viewBox="0 0 45 380" version="1.1" xmlns="http://www.w3.org/2000/svg" xmlns:xlink="http://www.w3.org/1999/xlink" xml:space="preserve" xmlns:serif="http://www.serif.com/" style="fill-rule:evenodd;clip-rule:evenodd;stroke-linecap:round;stroke-linejoin:round;stroke-miterlimit:1.5;">
    <rect x="0" y="0" width="45" height="380" style="fill:rgb(235,235,235);"/>
    <g transform="matrix(1,0,0,1,-3.02595,113.734)">
        <path d="M18.62,178.78L17.557,175.103L17.557,178.78L16.578,178.78L16.578,171.103L17.443,171.103L18.995,176.509L20.536,171.103L21.401,171.103L21.401,178.78L20.422,178.78L20.422,175.103L19.359,178.78L18.62,178.78Z" style="fill-rule:nonzero;"/>
        <path d="M22.182,173.29C22.182,172.613 22.328,172.082 22.62,171.707C22.734,171.572 22.891,171.426 23.12,171.301C23.349,171.186 23.63,171.103 24.005,171.103C24.755,171.103 25.172,171.426 25.391,171.707C25.682,172.082 25.828,172.613 25.828,173.29L25.828,176.592C25.828,177.269 25.682,177.801 25.391,178.176C25.172,178.457 24.755,178.78 24.005,178.78C23.266,178.78 22.838,178.457 22.62,178.176C22.328,177.801 22.182,177.269 22.182,176.592L22.182,173.29ZM23.161,176.592C23.161,177.207 23.297,177.499 23.474,177.644C23.651,177.79 23.849,177.801 24.005,177.801C24.141,177.801 24.359,177.79 24.536,177.644C24.713,177.499 24.849,177.207 24.849,176.592L24.849,173.29C24.849,172.697 24.713,172.384 24.536,172.238C24.359,172.092 24.141,172.092 24.005,172.092C23.849,172.092 23.651,172.092 23.474,172.238C23.297,172.384 23.161,172.697 23.161,173.29L23.161,176.592Z" style="fill-rule:nonzero;"/>
        <path d="M29.255,178.78L27.38,174.134L27.38,178.78L26.401,178.78L26.401,171.103L27.224,171.103L29.099,175.749L29.099,171.103L30.088,171.103L30.088,178.78L29.255,178.78Z" style="fill-rule:nonzero;"/>
        <path d="M30.828,173.29C30.828,172.613 30.974,172.082 31.266,171.707C31.38,171.572 31.536,171.426 31.766,171.301C31.995,171.186 32.276,171.103 32.651,171.103C33.401,171.103 33.818,171.426 34.036,171.707C34.328,172.082 34.474,172.613 34.474,173.29L34.474,176.592C34.474,177.269 34.328,177.801 34.036,178.176C33.818,178.457 33.401,178.78 32.651,178.78C31.911,178.78 31.484,178.457 31.266,178.176C30.974,177.801 30.828,177.269 30.828,176.592L30.828,173.29ZM31.807,176.592C31.807,177.207 31.943,177.499 32.12,177.644C32.297,177.79 32.495,177.801 32.651,177.801C32.786,177.801 33.005,177.79 33.182,177.644C33.359,177.499 33.495,177.207 33.495,176.592L33.495,173.29C33.495,172.697 33.359,172.384 33.182,172.238C33.005,172.092 32.786,172.092 32.651,172.092C32.495,172.092 32.297,172.092 32.12,172.238C31.943,172.384 31.807,172.697 31.807,173.29L31.807,176.592Z" style="fill-rule:nonzero;"/>
    </g>
    <g transform="matrix(0.718012,0,0,0.718012,0.426451,92.0249)">
        <path d="M13.669,223.073L15.032,223.073L15.032,223.755C15.032,224.379 15.148,224.828 15.366,225.104C15.409,225.177 15.497,225.235 15.627,225.307C15.758,225.38 15.946,225.423 16.222,225.423C16.744,225.423 17.034,225.162 17.208,224.843C17.368,224.524 17.397,224.118 17.397,223.827C17.397,223.32 17.223,222.986 16.976,222.739C16.73,222.507 16.396,222.348 16.091,222.217L15.83,222.101C15.526,221.97 15.003,221.753 14.539,221.303C13.959,220.737 13.669,220.026 13.669,219.156C13.669,218.242 13.915,217.473 14.379,216.936C14.829,216.414 15.467,216.095 16.222,216.095C17.266,216.095 17.847,216.545 18.151,216.936C18.572,217.473 18.775,218.213 18.775,219.156L18.775,219.838L17.397,219.838L17.397,219.156C17.397,218.329 17.208,217.879 16.962,217.676C16.715,217.473 16.41,217.473 16.222,217.473C15.656,217.473 15.38,217.778 15.221,218.155C15.047,218.532 15.032,218.967 15.032,219.156C15.032,219.664 15.206,219.997 15.453,220.259C15.7,220.52 16.033,220.708 16.381,220.839L16.614,220.94C16.889,221.056 17.412,221.245 17.876,221.695C18.471,222.246 18.775,222.957 18.775,223.827C18.775,225.467 17.861,226.787 16.222,226.787C14.524,226.787 13.669,225.67 13.669,223.755L13.669,223.073Z" style="fill-rule:nonzero;"/>
        <path d="M19.428,216.095L25.478,216.095L25.478,217.473L23.142,217.473L23.142,226.787L21.764,226.787L21.764,217.473L19.428,217.473L19.428,216.095Z" style="fill-rule:nonzero;"/>
        <path d="M30.541,216.109L30.541,217.473L27.48,217.473L27.48,220.766L30.541,220.766L30.541,222.13L27.48,222.13L27.48,225.438L30.541,225.438L30.541,226.802L26.116,226.802L26.116,216.109L30.541,216.109Z" style="fill-rule:nonzero;"/>
        <path d="M36.475,226.787L35.096,226.787L35.096,223.624C35.096,222.681 34.647,222.217 33.733,222.217L32.877,222.217L32.877,226.787L31.513,226.787L31.513,216.095L33.733,216.095C35.575,216.095 36.446,217.154 36.446,219.141C36.446,220.128 36.228,220.882 35.807,221.39C35.793,221.405 35.764,221.434 35.749,221.463C35.72,221.492 35.691,221.521 35.662,221.535C36.184,222.043 36.475,222.739 36.475,223.624L36.475,226.787ZM32.877,220.839L33.733,220.839C34.095,220.839 34.356,220.795 34.502,220.708C34.632,220.621 34.719,220.549 34.763,220.505C34.98,220.23 35.082,219.78 35.082,219.141C35.082,218.431 34.966,218.01 34.748,217.763C34.516,217.531 34.182,217.473 33.733,217.473L32.877,217.473L32.877,220.839Z" style="fill-rule:nonzero;"/>
        <path d="M41.987,216.109L41.987,217.473L38.926,217.473L38.926,220.766L41.987,220.766L41.987,222.13L38.926,222.13L38.926,225.438L41.987,225.438L41.987,226.802L37.563,226.802L37.563,216.109L41.987,216.109Z" style="fill-rule:nonzero;"/>
        <path d="M42.96,219.141C42.96,218.198 43.163,217.459 43.569,216.936C43.728,216.748 43.946,216.545 44.265,216.371C44.584,216.211 44.976,216.095 45.498,216.095C46.543,216.095 47.123,216.545 47.428,216.936C47.834,217.459 48.037,218.198 48.037,219.141L48.037,223.74C48.037,224.683 47.834,225.423 47.428,225.946C47.123,226.337 46.543,226.787 45.498,226.787C44.468,226.787 43.873,226.337 43.569,225.946C43.163,225.423 42.96,224.683 42.96,223.74L42.96,219.141ZM44.323,223.74C44.323,224.596 44.512,225.003 44.758,225.206C45.005,225.409 45.281,225.423 45.498,225.423C45.687,225.423 45.992,225.409 46.238,225.206C46.485,225.003 46.673,224.596 46.673,223.74L46.673,219.141C46.673,218.315 46.485,217.879 46.238,217.676C45.992,217.473 45.687,217.473 45.498,217.473C45.281,217.473 45.005,217.473 44.758,217.676C44.512,217.879 44.323,218.315 44.323,219.141L44.323,223.74Z" style="fill-rule:nonzero;"/>
    </g>
    <g transform="matrix(1,0,0,1,4,13.8201)">
        <path d="M34.1,63.135L30.756,63.135L30.756,55.458L31.735,55.458L31.735,62.155L34.1,62.155L34.1,63.135Z" style="fill-rule:nonzero;"/>
    </g>
    <g transform="matrix(1,0,0,1,6.79123,25.0134)">
        <path d="M31.46,91.941L30.471,91.941L30.471,89.671C30.471,88.993 30.148,88.66 29.491,88.66L28.877,88.66L28.877,91.941L27.898,91.941L27.898,84.264L29.491,84.264C30.814,84.264 31.439,85.025 31.439,86.452C31.439,87.16 31.283,87.702 30.981,88.066C30.971,88.077 30.95,88.098 30.939,88.118C30.918,88.139 30.898,88.16 30.877,88.171C31.252,88.535 31.46,89.035 31.46,89.671L31.46,91.941ZM28.877,87.671L29.491,87.671C29.752,87.671 29.939,87.639 30.043,87.577C30.137,87.514 30.2,87.462 30.231,87.431C30.387,87.233 30.46,86.91 30.46,86.452C30.46,85.941 30.377,85.639 30.221,85.462C30.054,85.296 29.814,85.254 29.491,85.254L28.877,85.254L28.877,87.671Z" style="fill-rule:nonzero;"/>
    </g>
    <g transform="matrix(1,0,0,1,-2.0753,19.1302)">
        <path d="M17.748,28.783L16.686,25.106L16.686,28.783L15.707,28.783L15.707,21.106L16.571,21.106L18.123,26.512L19.665,21.106L20.529,21.106L20.529,28.783L19.55,28.783L19.55,25.106L18.488,28.783L17.748,28.783Z" style="fill-rule:nonzero;"/>
        <path d="M21.311,23.294C21.311,22.616 21.457,22.085 21.748,21.71C21.863,21.575 22.019,21.429 22.248,21.304C22.477,21.189 22.759,21.106 23.134,21.106C23.884,21.106 24.3,21.429 24.519,21.71C24.811,22.085 24.957,22.616 24.957,23.294L24.957,26.596C24.957,27.273 24.811,27.804 24.519,28.179C24.3,28.46 23.884,28.783 23.134,28.783C22.394,28.783 21.967,28.46 21.748,28.179C21.457,27.804 21.311,27.273 21.311,26.596L21.311,23.294ZM22.29,26.596C22.29,27.21 22.425,27.502 22.602,27.648C22.779,27.794 22.977,27.804 23.134,27.804C23.269,27.804 23.488,27.794 23.665,27.648C23.842,27.502 23.977,27.21 23.977,26.596L23.977,23.294C23.977,22.7 23.842,22.387 23.665,22.241C23.488,22.096 23.269,22.096 23.134,22.096C22.977,22.096 22.779,22.096 22.602,22.241C22.425,22.387 22.29,22.7 22.29,23.294L22.29,26.596Z" style="fill-rule:nonzero;"/>
        <path d="M28.384,28.783L26.509,24.137L26.509,28.783L25.529,28.783L25.529,21.106L26.352,21.106L28.227,25.752L28.227,21.106L29.217,21.106L29.217,28.783L28.384,28.783Z" style="fill-rule:nonzero;"/>
        <path d="M29.957,23.294C29.957,22.616 30.102,22.085 30.394,21.71C30.509,21.575 30.665,21.429 30.894,21.304C31.123,21.189 31.404,21.106 31.779,21.106C32.529,21.106 32.946,21.429 33.165,21.71C33.457,22.085 33.602,22.616 33.602,23.294L33.602,26.596C33.602,27.273 33.457,27.804 33.165,28.179C32.946,28.46 32.529,28.783 31.779,28.783C31.04,28.783 30.613,28.46 30.394,28.179C30.102,27.804 29.957,27.273 29.957,26.596L29.957,23.294ZM30.936,26.596C30.936,27.21 31.071,27.502 31.248,27.648C31.425,27.794 31.623,27.804 31.779,27.804C31.915,27.804 32.134,27.794 32.311,27.648C32.488,27.502 32.623,27.21 32.623,26.596L32.623,23.294C32.623,22.7 32.488,22.387 32.311,22.241C32.134,22.096 31.915,22.096 31.779,22.096C31.623,22.096 31.425,22.096 31.248,22.241C31.071,22.387 30.936,22.7 30.936,23.294L30.936,26.596Z" style="fill-rule:nonzero;"/>
    </g>
    <path d="M22.5,106.028L22.5,63.786" style="fill:none;stroke:black;stroke-width:0.52px;"/>
    <g transform="matrix(2.51257,0,0,2.51257,-19.108,-542.639)">
        <path d="M15.921,356.04C15.874,356.377 16.025,356.615 16.402,356.615C16.745,356.615 17.105,356.319 17.273,355.994C17.354,355.831 17.349,355.675 17.325,355.628C17.302,355.576 17.25,355.582 17.221,355.634C16.995,356.04 16.698,356.423 16.455,356.435C16.246,356.446 16.223,356.203 16.373,355.872C16.507,355.576 16.797,355.141 16.925,354.879C17.064,354.589 17.018,354.334 16.931,354.229C16.884,354.171 16.844,354.183 16.786,354.264C16.6,354.514 16.432,354.914 16.066,355.506C15.752,356.011 15.433,356.417 15.207,356.4C15.015,356.388 15.137,356 15.178,355.895C15.3,355.617 15.416,355.384 15.631,355.042C15.839,354.711 15.869,354.45 15.741,354.258C15.694,354.206 15.631,354.194 15.59,354.264C15.091,355.071 14.377,356.557 14.133,357.149C13.994,357.491 14.052,357.665 14.139,357.787C14.174,357.839 14.214,357.828 14.238,357.776C14.435,357.317 14.644,356.882 14.841,356.493C14.899,356.545 14.98,356.574 15.085,356.586C15.41,356.609 15.718,356.313 15.921,356.04Z" style="fill-rule:nonzero;"/>
        <path d="M17.854,354.253C17.604,354.711 17.36,355.199 17.238,355.489C16.96,356.156 17.267,356.586 17.65,356.597C18.115,356.615 18.498,356.104 18.573,355.936C18.631,355.802 18.66,355.698 18.631,355.605C18.608,355.524 18.544,355.535 18.509,355.605C18.295,356.04 17.964,356.452 17.703,356.441C17.459,356.429 17.395,356.069 17.587,355.646C17.807,355.158 18.138,354.595 18.364,354.206C18.509,354.183 18.689,354.165 18.817,354.183C18.904,354.183 18.927,354.142 18.887,354.073C18.84,353.997 18.753,353.893 18.527,353.898C18.666,353.597 18.666,353.405 18.602,353.243C18.573,353.173 18.515,353.167 18.463,353.243C18.364,353.37 18.202,353.643 18.022,353.962C17.865,353.98 17.703,353.991 17.54,353.986C17.453,353.98 17.418,354.02 17.476,354.102C17.523,354.165 17.656,354.253 17.854,354.253Z" style="fill-rule:nonzero;"/>
    </g>
</svg>
